<svg width="116" height="81" viewBox="0 0 116 81" fill="none" xmlns="http://www.w3.org/2000/svg">
<g clip-path="url(#clip0_4119_94202)">
<path d="M22.5245 39C18.0142 41.307 13.9774 45.3116 12.7389 50.4229C9.56058 63.5415 24.374 70.0558 34.5914 72.5503C47.994 75.8227 62.3813 76.1578 75.1394 70.2427C81.1571 67.4524 85.8119 62.77 90.0071 57.6188C96.3284 49.8566 101.358 39.3478 99.5579 28.227C96.2962 8.07466 72.2445 1.81434 56.6647 2.61818C52.0238 2.85762 47.5161 3.5411 44.1042 7.32466C41.0787 10.6806 41.4656 15.3453 40.96 19.8478C40.3799 25.0117 38.334 29.7543 34.717 32.8309C31.5412 35.5325 27.6035 36.7278 23.9 38.3475C23.4429 38.5477 22.9834 38.765 22.5245 38.9994V39Z" fill="url(#paint0_linear_4119_94202)"/>
<path d="M32.7841 11.4934C36.2497 12.0775 38.4836 15.0375 37.5898 17.876C36.1474 22.4583 31.9944 31.2803 21.3308 31.7541C6.88982 32.3951 25.0305 10.2645 32.6156 11.4662C32.6724 11.475 32.728 11.4845 32.7835 11.4934H32.7841Z" fill="url(#paint1_linear_4119_94202)"/>
<path d="M76.6927 17.8411C76.5097 17.8411 76.3613 17.6922 76.3613 17.5086V14.3819C76.3613 14.1982 76.5097 14.0493 76.6927 14.0493C76.8758 14.0493 77.0241 14.1982 77.0241 14.3819V17.5086C77.0241 17.6922 76.8758 17.8411 76.6927 17.8411Z" fill="#8A4EB1"/>
<path d="M78.25 16.2779H75.1341C74.9511 16.2779 74.8027 16.129 74.8027 15.9454C74.8027 15.7617 74.9511 15.6128 75.1341 15.6128H78.25C78.433 15.6128 78.5814 15.7617 78.5814 15.9454C78.5814 16.129 78.433 16.2779 78.25 16.2779Z" fill="#8A4EB1"/>
<path d="M93.9974 69.3968C93.8144 69.3968 93.666 69.2479 93.666 69.0642V65.9375C93.666 65.7538 93.8144 65.605 93.9974 65.605C94.1805 65.605 94.3288 65.7538 94.3288 65.9375V69.0642C94.3288 69.2479 94.1805 69.3968 93.9974 69.3968Z" fill="#7844D3"/>
<path d="M95.5547 67.8336H92.4388C92.2558 67.8336 92.1074 67.6847 92.1074 67.501C92.1074 67.3173 92.2558 67.1685 92.4388 67.1685H95.5547C95.7377 67.1685 95.8861 67.3173 95.8861 67.501C95.8861 67.6847 95.7377 67.8336 95.5547 67.8336Z" fill="#7844D3"/>
<path d="M25.2669 60.6554C24.9336 60.6554 24.6641 60.3843 24.6641 60.0504V54.3628C24.6641 54.0283 24.9342 53.7578 25.2669 53.7578C25.5996 53.7578 25.8697 54.0289 25.8697 54.3628V60.0504C25.8697 60.3849 25.5996 60.6554 25.2669 60.6554Z" fill="white"/>
<path d="M28.1009 57.8114H22.4329C22.0996 57.8114 21.8301 57.5403 21.8301 57.2065C21.8301 56.8727 22.1003 56.6016 22.4329 56.6016H28.1009C28.4342 56.6016 28.7037 56.8727 28.7037 57.2065C28.7037 57.5403 28.4335 57.8114 28.1009 57.8114Z" fill="white"/>
<path d="M67.3813 25.3587C67.9123 25.3587 68.3427 24.9267 68.3427 24.3939C68.3427 23.8611 67.9123 23.4292 67.3813 23.4292C66.8503 23.4292 66.4199 23.8611 66.4199 24.3939C66.4199 24.9267 66.8503 25.3587 67.3813 25.3587Z" fill="white"/>
<path d="M37.8677 59.1832C38.0878 58.9623 38.0878 58.6041 37.8677 58.3832C37.6475 58.1623 37.2906 58.1623 37.0705 58.3832C36.8503 58.6041 36.8503 58.9623 37.0705 59.1832C37.2906 59.4041 37.6475 59.4041 37.8677 59.1832Z" fill="#6ED3FF"/>
<path d="M22.7256 25.2296C22.9661 25.0312 23.0008 24.6748 22.8031 24.4334C22.6054 24.1921 22.2502 24.1573 22.0097 24.3556C21.7692 24.554 21.7345 24.9105 21.9322 25.1518C22.1299 25.3932 22.4851 25.428 22.7256 25.2296Z" fill="white"/>
<path d="M93.4205 54.8789L74.5951 53.2802L40.1219 50.3524L34.9302 49.9116L24.6462 37.2647L39.7317 41.1285L74.4572 50.022L93.4205 54.8789Z" fill="#3DA3D4"/>
<path d="M34.9327 49.9118L30.5144 60.8403L43.51 56.6701L93.423 54.8791L34.9327 49.9118Z" fill="#298AB9"/>
<rect x="43.6035" y="33.7134" width="42.1797" height="25.3532" rx="5.13713" transform="rotate(1.12259 43.6035 33.7134)" fill="#F6F3FF" stroke="#999999" stroke-linecap="round"/>
<path d="M77.2109 50.6808L51.5286 50.1775C50.731 50.1619 50.0063 49.8641 49.4562 49.3846C48.7907 48.8054 48.3795 47.96 48.3978 47.0267L48.5274 40.4145C48.5441 39.5614 48.9165 38.7966 49.5044 38.2496C50.0933 37.7016 50.8976 37.3724 51.7782 37.3897L77.4605 37.8929C78.342 37.9102 79.1328 38.2716 79.6988 38.8412C80.2658 39.4118 80.607 40.1907 80.5903 41.0428L80.4607 47.6549C80.444 48.508 80.0715 49.2729 79.4837 49.8199C78.8948 50.3678 78.0905 50.697 77.2099 50.6798L77.2109 50.6808Z" fill="#B294E6"/>
<path d="M73.7645 44.6666C74.044 43.6109 73.386 42.5347 72.2947 42.2628C71.2035 41.991 70.0922 42.6264 69.8127 43.6822C69.5332 44.7379 70.1913 45.8141 71.2825 46.086C72.3738 46.3578 73.485 45.7224 73.7645 44.6666Z" fill="#F6F3FF"/>
<path d="M59.1591 44.3805C59.4386 43.3248 58.7805 42.2485 57.6892 41.9767C56.598 41.7048 55.4868 42.3403 55.2073 43.396C54.9278 44.4518 55.5858 45.528 56.6771 45.7998C57.7683 46.0717 58.8796 45.4362 59.1591 44.3805Z" fill="#F6F3FF"/>
<path d="M62.8091 16.7364L63.2491 16.974L63.2595 16.9546L63.2683 16.9344L62.8091 16.7364ZM63.5361 16.3299L63.5084 16.8292L63.5174 16.8296L63.5263 16.8298L63.5361 16.3299ZM65.9268 16.3768L65.917 16.8767L65.917 16.8767L65.9268 16.3768ZM66.4714 16.8082L65.9976 16.9677L66.0042 16.9873L66.0124 17.0063L66.4714 16.8082ZM73.5513 34.472C73.6607 34.7255 73.955 34.8423 74.2085 34.7329C74.462 34.6235 74.5788 34.3292 74.4694 34.0757L73.5513 34.472ZM64.8586 22.3985L65.3299 22.2314L65.3275 22.2248L64.8586 22.3985ZM64.0117 22.3819L63.5528 22.1833L63.5495 22.1911L64.0117 22.3819ZM53.1149 33.6354C52.9837 33.8784 53.0743 34.1817 53.3173 34.313C53.5603 34.4442 53.8636 34.3536 53.9948 34.1106L53.1149 33.6354ZM63.2683 16.9344C63.2866 16.8919 63.3005 16.869 63.3094 16.857C63.3135 16.8514 63.3161 16.8488 63.3171 16.8478C63.3179 16.847 63.3182 16.8468 63.3183 16.8467C63.3185 16.8467 63.3202 16.8455 63.3246 16.8437C63.3292 16.8419 63.3377 16.839 63.3516 16.8361C63.38 16.8302 63.4294 16.8248 63.5084 16.8292L63.5637 15.8307C63.2757 15.8147 63.0053 15.8583 62.7754 16.007C62.5456 16.1555 62.4246 16.3654 62.35 16.5384L63.2683 16.9344ZM63.5263 16.8298L65.917 16.8767L65.9366 15.8769L63.5459 15.83L63.5263 16.8298ZM65.917 16.8767C65.8868 16.8761 65.8685 16.8716 65.8658 16.8709C65.8614 16.8698 65.8629 16.8698 65.87 16.8727C65.8846 16.8786 65.9075 16.8903 65.9322 16.9076C65.9569 16.9248 65.9759 16.9424 65.9883 16.957C66.0008 16.9718 66.0004 16.9761 65.9976 16.9677L66.9453 16.6487C66.8559 16.3828 66.6625 16.1979 66.505 16.0879C66.4216 16.0296 66.3331 15.9814 66.2461 15.9461C66.1671 15.9141 66.0569 15.8792 65.9366 15.8769L65.917 16.8767ZM66.0124 17.0063L73.5513 34.472L74.4694 34.0757L66.9305 16.61L66.0124 17.0063ZM69.5059 34.0093L65.3299 22.2314L64.3874 22.5656L68.5634 34.3434L69.5059 34.0093ZM65.3275 22.2248C65.2587 22.039 65.1144 21.9477 65.0499 21.9123C64.9728 21.87 64.8942 21.8454 64.8334 21.8302C64.7088 21.7991 64.5705 21.7859 64.4471 21.7836C64.3236 21.7814 64.1853 21.7895 64.0601 21.8156C63.9989 21.8283 63.9202 21.8495 63.8423 21.8879C63.7779 21.9197 63.6307 22.0032 63.5528 22.1833L64.4706 22.5804C64.4376 22.6568 64.3911 22.7066 64.3586 22.7348C64.3263 22.7628 64.2983 22.7781 64.2843 22.7849C64.2694 22.7923 64.2598 22.7953 64.2581 22.7959C64.2561 22.7965 64.2578 22.7959 64.2641 22.7945C64.2774 22.7918 64.2996 22.7884 64.3302 22.7861C64.3602 22.7838 64.3938 22.7828 64.4286 22.7835C64.4634 22.7841 64.4969 22.7863 64.5265 22.7897C64.5569 22.7932 64.5786 22.7973 64.5912 22.8005C64.5972 22.802 64.5986 22.8026 64.5961 22.8017C64.5941 22.801 64.584 22.7973 64.5689 22.789C64.5546 22.7812 64.5265 22.7642 64.4949 22.7338C64.4629 22.7032 64.4188 22.6505 64.3897 22.5721L65.3275 22.2248ZM63.5495 22.1911L58.7594 33.7932L59.6837 34.1749L64.4739 22.5727L63.5495 22.1911ZM53.9948 34.1106L63.2491 16.974L62.3692 16.4988L53.1149 33.6354L53.9948 34.1106Z" fill="#999999"/>
<path d="M30.5127 60.841L45.1873 63.0653L43.5083 56.6707L30.5127 60.841Z" fill="#1675A2"/>
<path d="M43.5093 56.6704C43.5093 56.6704 49.9318 81.5655 50.4764 80.5553C51.0209 79.545 93.4224 54.8788 93.4224 54.8788L43.5095 56.6698L43.5093 56.6704Z" fill="#3DA3D4"/>
<path d="M108.931 19.2583H94.9535C94.3234 19.2583 93.8125 19.7692 93.8125 20.3993V34.3772C93.8125 35.0074 94.3234 35.5182 94.9535 35.5182H108.931C109.562 35.5182 110.072 35.0074 110.072 34.3772V20.3993C110.072 19.7692 109.562 19.2583 108.931 19.2583Z" fill="#300B6E"/>
<path d="M104.9 23.2915H90.9223C90.2921 23.2915 89.7812 23.8024 89.7812 24.4326V38.4104C89.7812 39.0406 90.2921 39.5514 90.9223 39.5514H104.9C105.53 39.5514 106.041 39.0406 106.041 38.4104V24.4326C106.041 23.8024 105.53 23.2915 104.9 23.2915Z" fill="#7844D3"/>
<path d="M99.0064 32.4371V35.6137H96.8133V32.4371H93.8945V30.4037H96.8133V27.2271H99.0064V30.4037H101.925V32.4371H99.0064Z" fill="white"/>
</g>
<defs>
<linearGradient id="paint0_linear_4119_94202" x1="12.3008" y1="45.6295" x2="105.815" y2="46.0894" gradientUnits="userSpaceOnUse">
<stop stop-color="#BDA7FF" stop-opacity="0.27"/>
<stop offset="0.0001" stop-color="#C3AFFF" stop-opacity="0.75"/>
<stop offset="1" stop-color="#EDD3B9" stop-opacity="0.22"/>
</linearGradient>
<linearGradient id="paint1_linear_4119_94202" x1="15.9102" y1="23.5382" x2="39.2574" y2="23.6401" gradientUnits="userSpaceOnUse">
<stop stop-color="#BDA7FF" stop-opacity="0.27"/>
<stop offset="0.0001" stop-color="#C3AFFF" stop-opacity="0.75"/>
<stop offset="1" stop-color="#EDD3B9" stop-opacity="0.22"/>
</linearGradient>
<clipPath id="clip0_4119_94202">
<rect width="114.93" height="80" fill="white" transform="translate(0.535156 0.5)"/>
</clipPath>
</defs>
</svg>
