<?xml version="1.0" encoding="UTF-8"?>
<svg xmlns="http://www.w3.org/2000/svg" xmlns:xlink="http://www.w3.org/1999/xlink" width="48px" height="48px" viewBox="0 0 48 48" version="1.1">
<g id="surface1">
<path style=" stroke:none;fill-rule:nonzero;fill:rgb(54.901963%,54.901963%,54.901963%);fill-opacity:1;" d="M 18.3125 47.726562 C 17.535156 47.5625 16.445312 46.203125 16.445312 45.390625 C 16.445312 45.109375 16.359375 45.007812 16.0625 44.945312 C 13.050781 44.277344 10.6875 41.988281 10.15625 39.222656 C 10.046875 38.664062 10.007812 36.941406 10.039062 34.085938 C 10.0625 31.71875 10.054688 29.785156 10.015625 29.785156 C 9.78125 29.789062 8.757812 30.550781 8.0625 31.238281 C 6.417969 32.863281 5.960938 34.257812 5.960938 37.667969 L 5.960938 39.992188 L 6.414062 39.992188 C 7.101562 39.992188 8.503906 40.714844 9.015625 41.335938 C 10.210938 42.785156 10.359375 45.441406 9.246094 45.441406 C 8.789062 45.441406 8.609375 45.082031 8.578125 44.101562 C 8.550781 43.289062 8.480469 43.011719 8.164062 42.535156 C 7.160156 41.019531 4.90625 41.011719 3.910156 42.515625 C 3.613281 42.964844 3.539062 43.246094 3.539062 43.894531 C 3.539062 44.761719 3.804688 45.355469 4.484375 45.992188 C 4.9375 46.421875 4.9375 46.769531 4.488281 47.066406 C 4.179688 47.269531 4.082031 47.273438 3.773438 47.109375 C 3.308594 46.859375 2.609375 45.96875 2.382812 45.328125 C 2.136719 44.636719 2.140625 43.234375 2.390625 42.523438 C 2.671875 41.726562 3.238281 41.019531 3.921875 40.621094 L 4.492188 40.285156 L 4.535156 37.796875 C 4.585938 34.941406 4.753906 34.019531 5.5 32.46875 C 5.886719 31.667969 6.285156 31.125 7.074219 30.335938 C 8.265625 29.140625 9.042969 28.648438 10.550781 28.125 C 11.128906 27.921875 11.625 27.6875 11.652344 27.601562 C 11.679688 27.515625 11.367188 27.253906 10.957031 27.019531 C 10.039062 26.503906 9.386719 25.777344 8.921875 24.761719 C 8.640625 24.148438 8.554688 23.703125 8.503906 22.570312 L 8.441406 21.148438 L 7.890625 21.078125 C 7.199219 20.984375 6.335938 20.394531 5.925781 19.734375 C 5.65625 19.300781 5.605469 18.996094 5.5625 17.566406 C 5.503906 15.636719 5.636719 15.042969 6.277344 14.410156 C 6.820312 13.875 7.257812 13.636719 7.933594 13.515625 L 8.4375 13.425781 L 8.511719 12.316406 C 8.648438 10.335938 9.570312 8.910156 11.25 8.082031 L 12.175781 7.628906 L 16.964844 7.585938 L 21.757812 7.542969 L 21.757812 6.433594 C 21.757812 5.371094 21.742188 5.320312 21.371094 5.128906 C 20.9375 4.898438 20.332031 4.28125 20.097656 3.828125 C 20.011719 3.660156 19.941406 3.234375 19.941406 2.878906 C 19.941406 0.382812 22.894531 -0.660156 24.449219 1.285156 C 25.414062 2.492188 24.972656 4.390625 23.554688 5.121094 C 23.167969 5.324219 23.15625 5.359375 23.15625 6.433594 L 23.15625 7.542969 L 27.945312 7.585938 L 32.730469 7.628906 L 33.570312 8.019531 C 35.273438 8.816406 36.25 10.359375 36.398438 12.484375 L 36.476562 13.570312 L 36.882812 13.570312 C 37.453125 13.570312 38.316406 14.046875 38.714844 14.582031 C 39.238281 15.285156 39.371094 15.867188 39.371094 17.40625 C 39.371094 18.644531 39.328125 18.917969 39.015625 19.539062 C 38.601562 20.375 37.824219 20.96875 37.003906 21.078125 L 36.4375 21.15625 L 36.4375 21.90625 C 36.4375 22.453125 36.488281 22.65625 36.628906 22.65625 C 37.507812 22.65625 43.703125 23.410156 44.066406 23.558594 C 44.613281 23.789062 44.964844 24.398438 44.964844 25.128906 C 44.964844 25.421875 44.804688 26.851562 44.613281 28.304688 C 44.421875 29.761719 44.28125 30.964844 44.300781 30.980469 C 44.320312 30.996094 44.597656 31.140625 44.914062 31.300781 C 45.613281 31.65625 46.042969 32.167969 46.160156 32.792969 C 46.207031 33.042969 46.175781 33.964844 46.085938 34.839844 C 45.84375 37.214844 45.308594 38.097656 44.003906 38.273438 C 43.371094 38.355469 43.378906 38.34375 43.210938 39.640625 C 43.03125 41.007812 42.503906 41.527344 41.296875 41.527344 C 40.890625 41.527344 39.269531 41.371094 37.695312 41.179688 C 33.917969 40.722656 34.195312 40.703125 33.792969 41.460938 C 33.34375 42.3125 31.761719 43.777344 30.777344 44.257812 C 30.339844 44.472656 29.65625 44.722656 29.261719 44.8125 C 28.585938 44.964844 28.539062 45.003906 28.433594 45.507812 C 28.277344 46.269531 27.863281 46.875 27.1875 47.34375 L 26.605469 47.75 L 22.609375 47.769531 C 20.410156 47.78125 18.476562 47.761719 18.3125 47.726562 Z M 28.871094 43.476562 C 30.242188 43.160156 32.101562 41.878906 32.636719 40.875 C 32.792969 40.582031 32.769531 40.566406 31.996094 40.484375 C 30.292969 40.304688 29.4375 39.8125 29.265625 38.914062 C 29.226562 38.703125 29.464844 36.359375 29.796875 33.703125 C 30.128906 31.050781 30.421875 28.625 30.449219 28.316406 L 30.492188 27.757812 L 22.664062 27.722656 C 17.425781 27.695312 14.59375 27.734375 14.101562 27.835938 C 13.125 28.039062 12.292969 28.6875 11.796875 29.644531 L 11.398438 30.402344 L 11.484375 39.222656 L 11.929688 40.167969 C 12.699219 41.789062 14.078125 42.949219 15.78125 43.410156 C 16.679688 43.652344 27.863281 43.710938 28.871094 43.476562 Z M 41.804688 39.175781 C 41.90625 38.351562 41.886719 38.0625 41.714844 37.699219 C 41.519531 37.292969 41.523438 37.023438 41.757812 34.8125 C 42.050781 32.0625 42.203125 31.390625 42.578125 31.1875 C 42.769531 31.085938 42.863281 30.824219 42.929688 30.171875 C 42.980469 29.691406 43.148438 28.363281 43.300781 27.226562 C 43.457031 26.089844 43.558594 25.082031 43.527344 24.992188 C 43.476562 24.839844 42.484375 24.691406 39.09375 24.339844 C 38.363281 24.261719 36.613281 24.0625 35.203125 23.890625 C 33.144531 23.640625 32.621094 23.617188 32.53125 23.757812 C 32.46875 23.859375 32.378906 24.453125 32.324219 25.078125 C 32.273438 25.707031 32.132812 26.875 32.015625 27.675781 C 31.894531 28.476562 31.824219 29.3125 31.855469 29.527344 C 31.886719 29.746094 31.878906 29.886719 31.835938 29.84375 C 31.753906 29.761719 31.617188 30.734375 31.125 34.882812 C 30.960938 36.261719 30.777344 37.65625 30.714844 37.980469 C 30.65625 38.304688 30.648438 38.644531 30.703125 38.730469 C 30.757812 38.816406 31.234375 38.941406 31.765625 39.007812 C 32.296875 39.074219 33.863281 39.269531 35.246094 39.4375 C 36.632812 39.605469 38.519531 39.855469 39.441406 39.992188 C 41.808594 40.335938 41.65625 40.390625 41.804688 39.175781 Z M 39.136719 38.914062 C 38.28125 38.832031 38.234375 38.710938 38.457031 37.1875 C 38.5625 36.460938 38.691406 35.410156 38.746094 34.851562 C 38.796875 34.292969 38.910156 33.796875 38.996094 33.742188 C 39.164062 33.640625 39.992188 33.65625 40.796875 33.78125 C 41.113281 33.832031 41.34375 33.953125 41.386719 34.09375 C 41.425781 34.222656 41.316406 35.367188 41.144531 36.636719 L 40.828125 38.941406 L 40.277344 38.957031 C 39.96875 38.964844 39.457031 38.945312 39.136719 38.914062 Z M 36.191406 38.589844 C 34.972656 38.414062 34.992188 38.429688 35.074219 37.386719 C 35.171875 36.148438 35.289062 36.054688 36.488281 36.222656 C 37.015625 36.296875 37.511719 36.398438 37.589844 36.445312 C 37.757812 36.550781 37.625 38.058594 37.410156 38.460938 C 37.332031 38.609375 37.1875 38.726562 37.09375 38.714844 C 37 38.707031 36.59375 38.648438 36.191406 38.589844 Z M 32.925781 38.175781 C 31.792969 38.03125 31.773438 38.003906 31.871094 36.941406 C 31.917969 36.4375 32.015625 35.96875 32.085938 35.898438 C 32.246094 35.734375 33.980469 35.917969 34.265625 36.128906 C 34.632812 36.398438 34.1875 38.386719 33.78125 38.292969 C 33.742188 38.285156 33.355469 38.230469 32.925781 38.175781 Z M 36.132812 35.554688 C 35.410156 35.480469 35.324219 35.316406 35.476562 34.328125 C 35.65625 33.207031 35.746094 33.140625 36.84375 33.296875 C 38.039062 33.464844 38.15625 33.578125 38.042969 34.457031 C 37.878906 35.769531 37.921875 35.746094 36.132812 35.554688 Z M 33.011719 35.144531 C 31.980469 34.929688 32.0625 35.039062 32.167969 34.007812 C 32.222656 33.472656 32.347656 33.003906 32.457031 32.917969 C 32.597656 32.808594 32.9375 32.808594 33.671875 32.921875 L 34.6875 33.074219 L 34.675781 33.925781 C 34.660156 35.140625 34.597656 35.242188 33.890625 35.222656 C 33.558594 35.210938 33.164062 35.179688 33.011719 35.144531 Z M 40.035156 33.011719 C 39.109375 32.882812 39.050781 32.785156 39.1875 31.65625 L 39.300781 30.695312 L 40.152344 30.652344 C 40.617188 30.628906 41.175781 30.679688 41.394531 30.761719 C 41.785156 30.910156 41.785156 30.914062 41.691406 31.84375 C 41.550781 33.191406 41.515625 33.21875 40.035156 33.011719 Z M 36.542969 32.621094 C 35.855469 32.546875 35.734375 32.292969 35.898438 31.253906 C 36.074219 30.121094 36.167969 30.046875 37.25 30.199219 C 38.4375 30.371094 38.527344 30.460938 38.433594 31.4375 C 38.300781 32.777344 38.261719 32.800781 36.542969 32.621094 Z M 33.574219 32.199219 C 32.570312 32.121094 32.472656 31.992188 32.570312 30.914062 C 32.617188 30.417969 32.734375 29.933594 32.832031 29.84375 C 33.046875 29.640625 34.867188 29.859375 35.128906 30.117188 C 35.25 30.230469 35.257812 30.503906 35.160156 31.105469 C 35.011719 32.019531 34.84375 32.316406 34.496094 32.277344 C 34.371094 32.261719 33.957031 32.226562 33.574219 32.199219 Z M 39.582031 29.214844 C 32.757812 28.402344 33.140625 28.460938 33.027344 28.171875 C 32.90625 27.855469 33.199219 25.972656 33.402344 25.769531 C 33.535156 25.636719 34.085938 25.660156 36.019531 25.882812 C 37.363281 26.039062 39.273438 26.253906 40.269531 26.359375 C 41.402344 26.484375 42.117188 26.625 42.191406 26.738281 C 42.328125 26.953125 42.1875 28.765625 42.003906 29.121094 C 41.863281 29.394531 41.285156 29.417969 39.582031 29.214844 Z M 44.117188 36.808594 C 44.476562 36.515625 44.644531 35.863281 44.769531 34.222656 C 44.878906 32.800781 44.707031 32.441406 43.914062 32.441406 L 43.464844 32.441406 L 43.234375 34.433594 C 42.949219 36.878906 42.949219 36.878906 43.25 36.957031 C 43.699219 37.074219 43.8125 37.054688 44.117188 36.808594 Z M 30.753906 26.046875 C 30.792969 25.910156 30.863281 25.359375 30.910156 24.824219 C 31.03125 23.488281 31.207031 23.007812 31.722656 22.574219 C 32.15625 22.207031 32.183594 22.203125 33.609375 22.300781 L 35.054688 22.394531 L 35.011719 16.898438 C 34.972656 12.023438 34.941406 11.351562 34.730469 10.964844 C 34.332031 10.238281 33.777344 9.660156 33.167969 9.335938 L 32.589844 9.027344 L 12.320312 9.027344 L 11.742188 9.335938 C 10.964844 9.75 10.21875 10.652344 10.027344 11.402344 C 9.945312 11.738281 9.875 12.835938 9.875 13.839844 L 9.875 15.667969 L 11.804688 15.667969 L 12.019531 15.042969 C 13.125 11.792969 17.222656 10.765625 19.796875 13.09375 C 20.375 13.617188 20.980469 14.542969 21.128906 15.128906 C 21.214844 15.472656 21.253906 15.484375 22.4375 15.492188 L 23.65625 15.503906 L 23.894531 14.828125 C 24.207031 13.960938 25.246094 12.808594 26.125 12.363281 C 29.3125 10.75 33.109375 13.023438 33.132812 16.558594 C 33.140625 17.929688 32.777344 18.875 31.863281 19.867188 C 30.875 20.933594 29.816406 21.414062 28.410156 21.429688 C 27.046875 21.441406 26.105469 21.097656 25.164062 20.234375 C 24.363281 19.503906 23.769531 18.460938 23.605469 17.476562 L 23.496094 16.855469 L 22.445312 16.8125 L 21.394531 16.773438 L 21.226562 17.582031 C 20.742188 19.898438 18.820312 21.449219 16.453125 21.433594 C 14.285156 21.417969 12.535156 20.054688 11.886719 17.882812 L 11.640625 17.0625 L 9.855469 17.0625 L 9.902344 20.453125 C 9.941406 23.652344 9.960938 23.878906 10.257812 24.429688 C 10.621094 25.109375 11.457031 25.855469 12.128906 26.097656 C 12.480469 26.226562 14.914062 26.273438 21.644531 26.28125 C 30.140625 26.289062 30.691406 26.277344 30.753906 26.046875 Z M 20.988281 24.410156 C 20.097656 24.238281 19.378906 23.796875 18.960938 22.949219 C 18.960938 22.644531 19.230469 22.375 19.535156 22.375 C 19.667969 22.375 20.078125 22.535156 20.453125 22.726562 C 21.757812 23.398438 23.539062 23.335938 24.695312 22.570312 C 25.292969 22.171875 25.738281 22.210938 25.886719 22.671875 C 26.027344 23.113281 25.613281 23.578125 24.648438 24.050781 C 23.5625 24.585938 22.09375 24.730469 20.988281 24.410156 Z M 17.714844 19.789062 C 18.460938 19.535156 19.136719 18.929688 19.554688 18.140625 C 19.992188 17.308594 19.988281 15.792969 19.542969 15.078125 C 18.765625 13.816406 17.671875 13.222656 16.300781 13.324219 C 14.417969 13.457031 13.179688 14.824219 13.199219 16.742188 C 13.21875 18.964844 15.226562 19.777344 15.4375 19.832031 C 16.214844 20.039062 17.023438 20.023438 17.714844 19.789062 Z M 16.078125 17.703125 C 15.804688 17.582031 15.589844 17.351562 15.492188 17.074219 C 15.085938 15.917969 16.5 15.007812 17.359375 15.871094 C 18.265625 16.773438 17.261719 18.210938 16.078125 17.703125 Z M 29.953125 19.558594 C 30.683594 19.175781 31.132812 18.472656 31.25 18.253906 C 31.542969 17.695312 31.613281 17.367188 31.613281 16.566406 C 31.613281 15.707031 31.558594 15.484375 31.191406 14.890625 C 30.574219 13.894531 29.679688 13.382812 28.429688 13.3125 C 26.699219 13.214844 25.714844 14.457031 25.457031 14.890625 C 24.742188 16.179688 24.519531 17.890625 26.25 19.316406 C 27.34375 20.09375 28.757812 20.183594 29.953125 19.558594 Z M 28.046875 17.804688 C 26.792969 17.34375 27.046875 15.527344 28.367188 15.527344 C 30.058594 15.527344 29.613281 18.128906 28.046875 17.804688 Z M 23.296875 3.644531 C 23.480469 3.457031 23.574219 3.179688 23.574219 2.804688 C 23.574219 2.058594 23.203125 1.6875 22.457031 1.6875 C 21.722656 1.6875 21.339844 2.0625 21.339844 2.773438 C 21.339844 3.585938 21.648438 3.921875 22.394531 3.921875 C 22.828125 3.921875 23.097656 3.839844 23.296875 3.644531 Z M 23.296875 3.644531 "/>
<path style=" stroke:none;fill-rule:nonzero;fill:rgb(27.843139%,50.980395%,91.37255%);fill-opacity:1;" d="M 18.554688 17.003906 C 18.554688 17.007812 18.554688 17.015625 18.554688 17.019531 C 18.554688 17.394531 18.554688 17.769531 18.554688 18.148438 C 18.554688 18.152344 18.5625 18.148438 18.566406 18.148438 C 18.894531 18.148438 19.222656 18.148438 19.550781 18.148438 C 19.550781 18.148438 19.554688 18.144531 19.554688 18.140625 C 19.578125 18.097656 19.601562 18.050781 19.621094 18 C 19.691406 17.847656 19.738281 17.683594 19.777344 17.519531 C 19.816406 17.351562 19.84375 17.179688 19.863281 17.007812 C 19.863281 17.007812 19.859375 17.003906 19.855469 17.003906 C 19.421875 17.003906 18.992188 17.003906 18.558594 17.003906 C 18.558594 17.003906 18.558594 17.003906 18.554688 17.003906 Z M 18.554688 17.003906 "/>
<path style=" stroke:none;fill-rule:nonzero;fill:rgb(27.843139%,50.980395%,91.37255%);fill-opacity:1;" d="M 16.574219 13.316406 C 15.730469 13.320312 14.867188 13.589844 14.242188 14.167969 C 13.699219 14.660156 13.359375 15.351562 13.25 16.074219 C 13.191406 16.441406 13.199219 16.820312 13.234375 17.1875 C 13.324219 17.851562 13.636719 18.476562 14.105469 18.949219 C 14.460938 19.320312 14.898438 19.613281 15.371094 19.804688 C 15.757812 19.925781 16.164062 19.976562 16.566406 19.972656 C 17.1875 19.960938 17.824219 19.820312 18.347656 19.472656 C 18.847656 19.148438 19.253906 18.679688 19.535156 18.164062 C 19.207031 18.160156 18.878906 18.160156 18.550781 18.15625 C 18.550781 17.773438 18.550781 17.386719 18.550781 17 C 18.984375 17 19.421875 17.003906 19.855469 17 C 19.882812 16.6875 19.875 16.375 19.84375 16.066406 C 19.804688 15.667969 19.683594 15.277344 19.453125 14.945312 C 19.023438 14.285156 18.398438 13.726562 17.636719 13.480469 C 17.292969 13.363281 16.933594 13.3125 16.574219 13.316406 Z M 16.570312 15.53125 C 17.128906 15.523438 17.636719 15.996094 17.703125 16.546875 C 17.738281 16.855469 17.640625 17.171875 17.433594 17.40625 C 17.21875 17.664062 16.886719 17.820312 16.550781 17.808594 C 16.164062 17.804688 15.769531 17.601562 15.574219 17.257812 C 15.378906 16.914062 15.359375 16.460938 15.566406 16.113281 C 15.769531 15.761719 16.160156 15.523438 16.570312 15.53125 Z M 16.570312 15.53125 "/>
<path style=" stroke:none;fill-rule:nonzero;fill:rgb(27.843139%,50.980395%,91.37255%);fill-opacity:1;" d="M 18.546875 17.5625 C 18.546875 17.566406 18.546875 17.570312 18.546875 17.574219 C 18.546875 17.769531 18.546875 17.960938 18.546875 18.15625 C 18.546875 18.160156 18.554688 18.160156 18.558594 18.160156 C 18.636719 18.160156 18.71875 18.160156 18.796875 18.160156 C 19.039062 18.164062 19.28125 18.164062 19.519531 18.164062 C 19.523438 18.167969 19.527344 18.164062 19.53125 18.167969 C 19.4375 18.335938 19.332031 18.496094 19.21875 18.648438 C 19.203125 18.667969 19.191406 18.683594 19.175781 18.703125 C 19.175781 18.707031 19.179688 18.710938 19.179688 18.707031 C 19.183594 18.707031 19.1875 18.707031 19.191406 18.707031 C 19.324219 18.535156 19.441406 18.351562 19.546875 18.160156 C 19.546875 18.15625 19.550781 18.152344 19.550781 18.148438 C 19.546875 18.148438 19.542969 18.148438 19.539062 18.148438 C 19.226562 18.148438 18.914062 18.148438 18.605469 18.148438 C 18.589844 18.148438 18.574219 18.148438 18.558594 18.148438 C 18.558594 17.953125 18.558594 17.761719 18.558594 17.566406 C 18.558594 17.5625 18.550781 17.5625 18.546875 17.5625 Z M 18.546875 17.5625 "/>
<path style=" stroke:none;fill-rule:nonzero;fill:rgb(27.843139%,50.980395%,91.37255%);fill-opacity:1;" d="M 19.867188 16.4375 C 19.867188 16.441406 19.867188 16.449219 19.867188 16.457031 C 19.871094 16.53125 19.871094 16.605469 19.871094 16.683594 C 19.867188 16.789062 19.863281 16.890625 19.855469 16.996094 C 19.796875 16.996094 19.738281 16.996094 19.679688 16.996094 C 19.304688 17 18.933594 17 18.558594 17 C 18.554688 17 18.550781 16.996094 18.546875 17 C 18.546875 17.1875 18.546875 17.375 18.546875 17.5625 C 18.546875 17.566406 18.554688 17.566406 18.558594 17.566406 C 18.558594 17.554688 18.558594 17.546875 18.558594 17.539062 C 18.558594 17.363281 18.558594 17.183594 18.558594 17.007812 C 18.621094 17.007812 18.683594 17.007812 18.75 17.007812 C 19.101562 17.007812 19.457031 17.007812 19.808594 17.007812 C 19.828125 17.007812 19.84375 17.007812 19.859375 17.007812 C 19.863281 17.003906 19.863281 17 19.863281 16.992188 C 19.871094 16.890625 19.878906 16.785156 19.882812 16.679688 C 19.882812 16.597656 19.882812 16.519531 19.878906 16.441406 C 19.878906 16.433594 19.871094 16.4375 19.867188 16.4375 Z M 19.867188 16.4375 "/>
<path style=" stroke:none;fill-rule:nonzero;fill:rgb(27.843139%,50.980395%,91.37255%);fill-opacity:1;" d="M 16.550781 13.320312 C 15.722656 13.332031 14.875 13.597656 14.257812 14.164062 C 13.585938 14.765625 13.226562 15.667969 13.214844 16.5625 C 13.203125 16.949219 13.230469 17.339844 13.359375 17.707031 C 13.503906 18.164062 13.753906 18.582031 14.089844 18.921875 C 14.4375 19.296875 14.875 19.585938 15.34375 19.789062 C 15.648438 19.894531 15.96875 19.9375 16.285156 19.960938 C 16.707031 19.976562 17.132812 19.949219 17.539062 19.832031 C 18.1875 19.652344 18.75 19.238281 19.164062 18.714844 C 19.296875 18.546875 19.425781 18.363281 19.519531 18.171875 C 19.28125 18.167969 19.039062 18.160156 18.796875 18.15625 C 19.050781 18.148438 19.304688 18.148438 19.554688 18.140625 C 19.722656 17.789062 19.820312 17.402344 19.855469 17.015625 C 19.421875 17.003906 18.988281 17.007812 18.554688 17.011719 C 18.5625 17.382812 18.546875 17.757812 18.566406 18.128906 C 18.5625 18.152344 18.601562 18.160156 18.5625 18.15625 C 18.53125 18.113281 18.558594 18.011719 18.550781 17.945312 C 18.550781 17.632812 18.550781 17.316406 18.550781 17 C 18.984375 16.996094 19.421875 17 19.851562 16.992188 C 19.890625 16.503906 19.871094 16.003906 19.730469 15.53125 C 19.585938 15.085938 19.300781 14.695312 18.980469 14.359375 C 18.46875 13.808594 17.765625 13.429688 17.019531 13.34375 C 16.863281 13.324219 16.707031 13.316406 16.550781 13.320312 Z M 16.570312 15.53125 C 17.023438 15.519531 17.441406 15.832031 17.621094 16.238281 C 17.730469 16.476562 17.734375 16.757812 17.660156 17.007812 C 17.519531 17.457031 17.082031 17.8125 16.601562 17.804688 C 16.148438 17.832031 15.6875 17.5625 15.515625 17.140625 C 15.410156 16.886719 15.386719 16.589844 15.46875 16.328125 C 15.617188 15.863281 16.082031 15.519531 16.570312 15.53125 Z M 16.570312 15.53125 "/>
<path style=" stroke:none;fill-rule:nonzero;fill:rgb(27.843139%,50.980395%,91.37255%);fill-opacity:1;" d="M 19.820312 15.875 C 19.816406 15.878906 19.820312 15.886719 19.820312 15.894531 C 19.847656 16.058594 19.859375 16.226562 19.867188 16.394531 C 19.867188 16.410156 19.867188 16.421875 19.867188 16.4375 C 19.871094 16.441406 19.882812 16.441406 19.878906 16.433594 C 19.875 16.25 19.855469 16.0625 19.824219 15.878906 C 19.824219 15.878906 19.824219 15.871094 19.820312 15.875 Z M 19.820312 15.875 "/>
<path style=" stroke:none;fill-rule:nonzero;fill:rgb(27.843139%,50.980395%,91.37255%);fill-opacity:1;" d="M 18.667969 14.042969 C 18.664062 14.042969 18.660156 14.042969 18.65625 14.042969 C 18.652344 14.046875 18.660156 14.050781 18.660156 14.050781 C 18.929688 14.273438 19.167969 14.535156 19.367188 14.824219 C 19.398438 14.867188 19.429688 14.914062 19.460938 14.957031 C 19.507812 15.03125 19.554688 15.109375 19.59375 15.1875 C 19.597656 15.191406 19.601562 15.1875 19.605469 15.1875 C 19.609375 15.1875 19.609375 15.183594 19.605469 15.183594 C 19.585938 15.136719 19.558594 15.09375 19.53125 15.050781 C 19.335938 14.738281 19.109375 14.449219 18.84375 14.195312 C 18.785156 14.144531 18.730469 14.09375 18.671875 14.042969 C 18.667969 14.042969 18.667969 14.042969 18.667969 14.042969 Z M 18.667969 14.042969 "/>
<path style=" stroke:none;fill-rule:nonzero;fill:rgb(27.843139%,50.980395%,91.37255%);fill-opacity:1;" d="M 17.191406 13.359375 C 17.1875 13.359375 17.1875 13.371094 17.191406 13.371094 C 17.34375 13.394531 17.496094 13.433594 17.644531 13.484375 C 17.742188 13.515625 17.84375 13.554688 17.9375 13.597656 C 18.082031 13.664062 18.21875 13.738281 18.351562 13.824219 C 18.453125 13.890625 18.550781 13.964844 18.644531 14.039062 C 18.648438 14.042969 18.652344 14.046875 18.65625 14.046875 C 18.660156 14.046875 18.664062 14.046875 18.667969 14.042969 C 18.667969 14.039062 18.664062 14.039062 18.660156 14.035156 C 18.457031 13.867188 18.234375 13.726562 17.996094 13.613281 C 17.769531 13.507812 17.53125 13.425781 17.285156 13.378906 C 17.253906 13.371094 17.222656 13.363281 17.191406 13.359375 Z M 17.191406 13.359375 "/>
<path style=" stroke:none;fill-rule:nonzero;fill:rgb(27.843139%,50.980395%,91.37255%);fill-opacity:1;" d="M 16.578125 13.308594 C 16.410156 13.308594 16.242188 13.320312 16.074219 13.34375 C 15.875 13.367188 15.675781 13.410156 15.480469 13.46875 C 15.476562 13.46875 15.472656 13.46875 15.46875 13.472656 C 15.464844 13.472656 15.464844 13.476562 15.46875 13.480469 C 15.46875 13.484375 15.472656 13.480469 15.476562 13.480469 C 15.78125 13.386719 16.097656 13.335938 16.414062 13.320312 C 16.464844 13.320312 16.515625 13.316406 16.5625 13.316406 C 16.628906 13.316406 16.691406 13.316406 16.753906 13.320312 C 16.898438 13.328125 17.042969 13.34375 17.1875 13.367188 C 17.191406 13.367188 17.191406 13.363281 17.191406 13.359375 C 17.1875 13.359375 17.179688 13.359375 17.175781 13.359375 C 16.980469 13.324219 16.78125 13.308594 16.578125 13.308594 Z M 16.578125 13.308594 "/>
<path style=" stroke:none;fill-rule:nonzero;fill:rgb(27.843139%,50.980395%,91.37255%);fill-opacity:1;" d="M 15.464844 13.472656 C 15.222656 13.542969 14.992188 13.644531 14.773438 13.769531 C 14.535156 13.90625 14.3125 14.074219 14.121094 14.269531 C 14.078125 14.3125 14.039062 14.355469 14 14.402344 C 13.996094 14.402344 14 14.40625 14.003906 14.40625 C 14.007812 14.40625 14.011719 14.40625 14.011719 14.402344 C 14.078125 14.332031 14.144531 14.261719 14.214844 14.195312 C 14.265625 14.148438 14.316406 14.101562 14.371094 14.058594 C 14.554688 13.910156 14.75 13.785156 14.960938 13.679688 C 15.113281 13.605469 15.273438 13.542969 15.4375 13.492188 C 15.449219 13.488281 15.457031 13.484375 15.46875 13.480469 C 15.46875 13.480469 15.46875 13.476562 15.46875 13.472656 C 15.46875 13.472656 15.464844 13.472656 15.464844 13.472656 Z M 15.464844 13.472656 "/>
<path style=" stroke:none;fill-rule:nonzero;fill:rgb(27.843139%,50.980395%,91.37255%);fill-opacity:1;" d="M 13.464844 15.277344 C 13.460938 15.28125 13.460938 15.285156 13.457031 15.289062 C 13.355469 15.542969 13.285156 15.808594 13.242188 16.082031 C 13.226562 16.195312 13.214844 16.308594 13.207031 16.421875 C 13.207031 16.425781 13.210938 16.421875 13.214844 16.421875 C 13.21875 16.421875 13.214844 16.417969 13.21875 16.414062 C 13.226562 16.269531 13.242188 16.128906 13.269531 15.984375 C 13.304688 15.78125 13.359375 15.578125 13.429688 15.386719 C 13.445312 15.351562 13.457031 15.316406 13.472656 15.28125 C 13.472656 15.277344 13.464844 15.277344 13.464844 15.277344 Z M 13.464844 15.277344 "/>
<path style=" stroke:none;fill-rule:nonzero;fill:rgb(27.843139%,50.980395%,91.37255%);fill-opacity:1;" d="M 13.816406 14.632812 C 13.8125 14.636719 13.8125 14.640625 13.808594 14.644531 C 13.710938 14.785156 13.621094 14.9375 13.546875 15.09375 C 13.515625 15.152344 13.488281 15.214844 13.460938 15.277344 C 13.460938 15.28125 13.46875 15.28125 13.46875 15.28125 C 13.472656 15.277344 13.476562 15.273438 13.476562 15.269531 C 13.515625 15.175781 13.558594 15.085938 13.605469 15 C 13.664062 14.890625 13.726562 14.78125 13.796875 14.679688 C 13.808594 14.664062 13.816406 14.652344 13.828125 14.640625 C 13.828125 14.636719 13.824219 14.632812 13.820312 14.632812 C 13.820312 14.632812 13.816406 14.632812 13.816406 14.632812 Z M 13.816406 14.632812 "/>
<path style=" stroke:none;fill-rule:nonzero;fill:rgb(27.843139%,50.980395%,91.37255%);fill-opacity:1;" d="M 14 14.402344 C 13.996094 14.40625 13.992188 14.414062 13.988281 14.417969 C 13.925781 14.484375 13.871094 14.558594 13.816406 14.632812 C 13.816406 14.636719 13.820312 14.636719 13.824219 14.636719 C 13.824219 14.640625 13.828125 14.636719 13.828125 14.632812 C 13.859375 14.59375 13.890625 14.550781 13.921875 14.511719 C 13.953125 14.476562 13.980469 14.441406 14.007812 14.410156 C 14.011719 14.40625 14.007812 14.402344 14.003906 14.40625 C 14.003906 14.40625 14 14.402344 14 14.402344 Z M 14 14.402344 "/>
<path style=" stroke:none;fill-rule:nonzero;fill:rgb(27.843139%,50.980395%,91.37255%);fill-opacity:1;" d="M 13.203125 16.84375 C 13.203125 16.84375 13.199219 16.847656 13.199219 16.851562 C 13.207031 17.042969 13.230469 17.234375 13.269531 17.425781 C 13.304688 17.589844 13.355469 17.75 13.414062 17.90625 C 13.425781 17.933594 13.4375 17.960938 13.449219 17.988281 C 13.449219 17.992188 13.453125 17.992188 13.457031 17.988281 C 13.460938 17.988281 13.457031 17.984375 13.457031 17.980469 C 13.378906 17.800781 13.320312 17.613281 13.277344 17.421875 C 13.261719 17.351562 13.25 17.277344 13.238281 17.203125 C 13.234375 17.160156 13.230469 17.121094 13.226562 17.078125 C 13.21875 17.003906 13.214844 16.929688 13.214844 16.855469 C 13.214844 16.851562 13.214844 16.84375 13.210938 16.84375 C 13.207031 16.84375 13.207031 16.84375 13.203125 16.84375 Z M 13.203125 16.84375 "/>
<path style=" stroke:none;fill-rule:nonzero;fill:rgb(27.843139%,50.980395%,91.37255%);fill-opacity:1;" d="M 13.210938 16.421875 C 13.210938 16.421875 13.207031 16.421875 13.207031 16.425781 C 13.203125 16.480469 13.199219 16.539062 13.199219 16.597656 C 13.195312 16.65625 13.195312 16.714844 13.195312 16.773438 C 13.195312 16.796875 13.199219 16.820312 13.199219 16.84375 C 13.199219 16.847656 13.207031 16.847656 13.207031 16.847656 C 13.210938 16.847656 13.214844 16.84375 13.210938 16.839844 C 13.210938 16.785156 13.210938 16.726562 13.210938 16.671875 C 13.210938 16.589844 13.210938 16.507812 13.214844 16.425781 C 13.214844 16.421875 13.214844 16.421875 13.210938 16.421875 Z M 13.210938 16.421875 "/>
<path style=" stroke:none;fill-rule:nonzero;fill:rgb(27.843139%,50.980395%,91.37255%);fill-opacity:1;" d="M 13.679688 18.417969 C 13.675781 18.417969 13.675781 18.421875 13.675781 18.421875 C 13.882812 18.75 14.148438 19.039062 14.453125 19.277344 C 14.554688 19.359375 14.664062 19.4375 14.773438 19.507812 C 14.78125 19.511719 14.789062 19.515625 14.796875 19.523438 C 14.800781 19.523438 14.800781 19.519531 14.800781 19.515625 C 14.804688 19.511719 14.796875 19.507812 14.792969 19.507812 C 14.605469 19.386719 14.425781 19.25 14.257812 19.097656 C 14.1875 19.03125 14.117188 18.960938 14.050781 18.890625 C 13.945312 18.777344 13.847656 18.652344 13.757812 18.527344 C 13.734375 18.492188 13.710938 18.457031 13.6875 18.417969 C 13.683594 18.417969 13.683594 18.417969 13.679688 18.417969 Z M 13.679688 18.417969 "/>
<path style=" stroke:none;fill-rule:nonzero;fill:rgb(27.843139%,50.980395%,91.37255%);fill-opacity:1;" d="M 15.242188 19.113281 C 15.238281 19.117188 15.238281 19.121094 15.238281 19.125 C 15.238281 19.332031 15.238281 19.542969 15.238281 19.75 C 15.242188 19.753906 15.246094 19.753906 15.25 19.753906 C 15.289062 19.773438 15.328125 19.789062 15.367188 19.808594 C 15.402344 19.816406 15.4375 19.828125 15.46875 19.835938 C 15.75 19.914062 16.035156 19.957031 16.324219 19.96875 C 16.40625 19.972656 16.492188 19.976562 16.574219 19.976562 C 16.734375 19.972656 16.894531 19.960938 17.054688 19.9375 C 17.058594 19.9375 17.058594 19.9375 17.058594 19.933594 C 17.058594 19.660156 17.058594 19.386719 17.058594 19.113281 C 17.054688 19.109375 17.050781 19.113281 17.046875 19.113281 C 16.445312 19.113281 15.84375 19.113281 15.242188 19.113281 Z M 15.242188 19.113281 "/>
<path style=" stroke:none;fill-rule:nonzero;fill:rgb(27.843139%,50.980395%,91.37255%);fill-opacity:1;" d="M 15.238281 19.75 C 15.238281 19.753906 15.238281 19.761719 15.242188 19.761719 C 15.300781 19.785156 15.359375 19.808594 15.417969 19.828125 C 15.445312 19.839844 15.476562 19.847656 15.507812 19.851562 C 15.769531 19.917969 16.039062 19.960938 16.3125 19.972656 C 16.386719 19.976562 16.460938 19.980469 16.53125 19.980469 C 16.582031 19.980469 16.628906 19.980469 16.675781 19.976562 C 16.800781 19.972656 16.925781 19.960938 17.050781 19.945312 C 17.054688 19.945312 17.058594 19.945312 17.058594 19.941406 C 17.058594 19.9375 17.054688 19.933594 17.050781 19.9375 C 16.902344 19.957031 16.75 19.96875 16.597656 19.972656 C 16.546875 19.972656 16.496094 19.972656 16.449219 19.972656 C 16.144531 19.964844 15.839844 19.929688 15.546875 19.855469 C 15.488281 19.839844 15.433594 19.824219 15.378906 19.808594 C 15.34375 19.796875 15.3125 19.78125 15.28125 19.765625 C 15.265625 19.761719 15.253906 19.753906 15.242188 19.75 C 15.242188 19.75 15.242188 19.75 15.238281 19.75 Z M 15.238281 19.75 "/>
<path style=" stroke:none;fill-rule:nonzero;fill:rgb(27.843139%,50.980395%,91.37255%);fill-opacity:1;" d="M 14.101562 18.960938 C 14.097656 18.964844 14.105469 18.96875 14.105469 18.96875 C 14.152344 19.015625 14.199219 19.0625 14.25 19.109375 C 14.417969 19.261719 14.597656 19.398438 14.789062 19.519531 C 14.792969 19.523438 14.796875 19.527344 14.800781 19.523438 C 14.804688 19.523438 14.804688 19.519531 14.804688 19.519531 C 14.941406 19.605469 15.085938 19.683594 15.234375 19.75 C 15.234375 19.75 15.238281 19.75 15.238281 19.753906 C 15.234375 19.757812 15.238281 19.761719 15.242188 19.761719 C 15.292969 19.785156 15.34375 19.808594 15.398438 19.824219 C 15.433594 19.839844 15.46875 19.847656 15.503906 19.855469 C 15.582031 19.875 15.664062 19.890625 15.742188 19.90625 C 15.75 19.910156 15.753906 19.910156 15.761719 19.910156 C 15.765625 19.910156 15.761719 19.902344 15.765625 19.902344 C 15.765625 19.589844 15.765625 19.277344 15.765625 18.964844 C 15.761719 18.960938 15.757812 18.960938 15.753906 18.960938 C 15.203125 18.960938 14.65625 18.960938 14.105469 18.960938 C 14.105469 18.960938 14.101562 18.960938 14.101562 18.960938 Z M 14.101562 18.960938 "/>
<path style=" stroke:none;fill-rule:nonzero;fill:rgb(27.843139%,50.980395%,91.37255%);fill-opacity:1;" d="M 14.804688 19.515625 C 14.800781 19.515625 14.800781 19.523438 14.804688 19.523438 C 14.820312 19.535156 14.839844 19.546875 14.855469 19.558594 C 14.980469 19.632812 15.105469 19.699219 15.234375 19.757812 C 15.238281 19.757812 15.242188 19.753906 15.238281 19.75 C 15.234375 19.746094 15.230469 19.746094 15.226562 19.742188 C 15.082031 19.675781 14.945312 19.601562 14.8125 19.519531 C 14.808594 19.519531 14.804688 19.515625 14.804688 19.515625 Z M 14.804688 19.515625 "/>
<path style=" stroke:none;fill-rule:nonzero;fill:rgb(27.843139%,50.980395%,91.37255%);fill-opacity:1;" d="M 13.453125 17.988281 C 13.453125 17.988281 13.449219 17.992188 13.449219 17.992188 C 13.511719 18.140625 13.585938 18.28125 13.671875 18.414062 C 13.671875 18.417969 13.675781 18.421875 13.679688 18.421875 C 13.683594 18.421875 13.6875 18.417969 13.683594 18.417969 C 13.632812 18.332031 13.585938 18.246094 13.539062 18.160156 C 13.511719 18.101562 13.484375 18.046875 13.460938 17.988281 C 13.460938 17.988281 13.457031 17.988281 13.453125 17.988281 Z M 13.453125 17.988281 "/>
<path style=" stroke:none;fill-rule:nonzero;fill:rgb(27.843139%,50.980395%,91.37255%);fill-opacity:1;" d="M 18.582031 19.300781 C 18.550781 19.324219 18.519531 19.351562 18.488281 19.371094 C 18.433594 19.410156 18.382812 19.445312 18.328125 19.480469 C 18.085938 19.640625 17.816406 19.757812 17.535156 19.835938 C 17.382812 19.878906 17.226562 19.910156 17.070312 19.933594 C 17.0625 19.933594 17.058594 19.933594 17.054688 19.933594 C 17.054688 19.9375 17.054688 19.941406 17.054688 19.945312 C 17.058594 19.945312 17.0625 19.945312 17.066406 19.945312 C 17.296875 19.910156 17.523438 19.859375 17.742188 19.78125 C 18 19.691406 18.246094 19.558594 18.46875 19.398438 C 18.507812 19.371094 18.546875 19.34375 18.582031 19.3125 C 18.585938 19.308594 18.585938 19.308594 18.585938 19.304688 C 18.585938 19.300781 18.582031 19.300781 18.582031 19.300781 Z M 18.582031 19.300781 "/>
<path style=" stroke:none;fill-rule:nonzero;fill:rgb(27.843139%,50.980395%,91.37255%);fill-opacity:1;" d="M 19.175781 18.707031 C 19.171875 18.707031 19.171875 18.710938 19.167969 18.714844 C 19.046875 18.867188 18.917969 19.007812 18.777344 19.136719 C 18.714844 19.191406 18.648438 19.246094 18.582031 19.300781 C 18.582031 19.300781 18.582031 19.304688 18.582031 19.308594 C 18.582031 19.3125 18.589844 19.308594 18.589844 19.308594 C 18.800781 19.144531 18.988281 18.957031 19.15625 18.75 C 19.164062 18.734375 19.175781 18.722656 19.1875 18.710938 C 19.1875 18.707031 19.183594 18.707031 19.179688 18.707031 C 19.179688 18.707031 19.179688 18.707031 19.175781 18.707031 Z M 19.175781 18.707031 "/>
<path style=" stroke:none;fill-rule:nonzero;fill:rgb(27.843139%,50.980395%,91.37255%);fill-opacity:1;" d="M 19.601562 15.1875 C 19.601562 15.1875 19.59375 15.1875 19.597656 15.191406 C 19.605469 15.210938 19.617188 15.234375 19.625 15.253906 C 19.707031 15.425781 19.761719 15.605469 19.800781 15.792969 C 19.804688 15.808594 19.808594 15.828125 19.8125 15.847656 C 19.8125 15.851562 19.820312 15.847656 19.816406 15.84375 C 19.808594 15.785156 19.796875 15.726562 19.78125 15.667969 C 19.742188 15.503906 19.6875 15.34375 19.609375 15.191406 C 19.609375 15.1875 19.605469 15.183594 19.605469 15.1875 Z M 19.601562 15.1875 "/>
<path style=" stroke:none;fill-rule:nonzero;fill:rgb(27.843139%,50.980395%,91.37255%);fill-opacity:1;" d="M 19.816406 15.847656 C 19.8125 15.847656 19.8125 15.851562 19.8125 15.855469 C 19.8125 15.859375 19.816406 15.867188 19.816406 15.875 C 19.820312 15.878906 19.824219 15.875 19.824219 15.871094 C 19.820312 15.863281 19.820312 15.855469 19.820312 15.847656 C 19.816406 15.847656 19.816406 15.847656 19.816406 15.847656 Z M 19.816406 15.847656 "/>
<path style=" stroke:none;fill-rule:nonzero;fill:rgb(27.843139%,50.980395%,91.37255%);fill-opacity:1;" d="M 14.832031 15.863281 C 14.828125 15.867188 14.832031 15.871094 14.828125 15.875 C 14.828125 16.25 14.828125 16.628906 14.828125 17.003906 C 14.832031 17.007812 14.835938 17.007812 14.839844 17.007812 C 15.046875 17.007812 15.253906 17.007812 15.460938 17.007812 C 15.464844 17.007812 15.472656 17.007812 15.46875 17.003906 C 15.445312 16.917969 15.429688 16.828125 15.425781 16.738281 C 15.414062 16.578125 15.4375 16.417969 15.492188 16.269531 C 15.519531 16.203125 15.550781 16.140625 15.585938 16.082031 C 15.628906 16.015625 15.679688 15.949219 15.734375 15.894531 C 15.746094 15.882812 15.753906 15.875 15.761719 15.867188 C 15.765625 15.863281 15.757812 15.859375 15.757812 15.863281 C 15.449219 15.863281 15.140625 15.863281 14.832031 15.863281 Z M 14.832031 15.863281 "/>
<path style=" stroke:none;fill-rule:nonzero;fill:rgb(27.843139%,50.980395%,91.37255%);fill-opacity:1;" d="M 15.597656 17.296875 C 15.59375 17.296875 15.597656 17.300781 15.601562 17.304688 C 15.703125 17.46875 15.859375 17.601562 16.03125 17.6875 C 16.140625 17.742188 16.261719 17.777344 16.382812 17.796875 C 16.390625 17.796875 16.398438 17.800781 16.410156 17.800781 C 16.414062 17.800781 16.414062 17.792969 16.410156 17.792969 C 16.378906 17.789062 16.347656 17.785156 16.320312 17.777344 C 16.226562 17.757812 16.136719 17.726562 16.050781 17.6875 C 15.960938 17.644531 15.875 17.585938 15.796875 17.519531 C 15.722656 17.457031 15.660156 17.382812 15.605469 17.300781 C 15.605469 17.300781 15.601562 17.292969 15.597656 17.296875 Z M 15.597656 17.296875 "/>
<path style=" stroke:none;fill-rule:nonzero;fill:rgb(27.843139%,50.980395%,91.37255%);fill-opacity:1;" d="M 17.671875 16.953125 C 17.667969 16.953125 17.667969 16.960938 17.667969 16.960938 C 17.613281 17.160156 17.5 17.34375 17.351562 17.488281 C 17.335938 17.503906 17.320312 17.519531 17.300781 17.535156 C 17.300781 17.539062 17.304688 17.539062 17.308594 17.539062 C 17.316406 17.53125 17.324219 17.523438 17.335938 17.515625 C 17.386719 17.46875 17.429688 17.417969 17.472656 17.363281 C 17.566406 17.246094 17.636719 17.105469 17.675781 16.960938 C 17.675781 16.957031 17.675781 16.953125 17.671875 16.953125 Z M 17.671875 16.953125 "/>
<path style=" stroke:none;fill-rule:nonzero;fill:rgb(27.843139%,50.980395%,91.37255%);fill-opacity:1;" d="M 28.171875 13.324219 C 27.273438 13.335938 26.414062 13.769531 25.828125 14.445312 C 25.359375 14.96875 25.066406 15.65625 24.972656 16.351562 C 24.953125 16.855469 24.921875 17.382812 25.152344 17.851562 C 25.574219 18.894531 26.539062 19.691406 27.652344 19.890625 C 28.851562 20.128906 30.191406 19.671875 30.9375 18.683594 C 31.378906 18.128906 31.625 17.421875 31.585938 16.710938 C 31.589844 16.175781 31.609375 15.601562 31.308594 15.128906 C 30.875 14.34375 30.167969 13.671875 29.28125 13.464844 C 28.917969 13.367188 28.546875 13.316406 28.171875 13.324219 Z M 28.464844 15.535156 C 29.003906 15.5 29.5 16.003906 29.433594 16.542969 C 29.503906 17.164062 29.011719 17.8125 28.375 17.835938 C 27.875 17.898438 27.425781 17.488281 27.269531 17.042969 C 27.203125 16.652344 27.195312 16.195312 27.5 15.894531 C 27.738281 15.609375 28.101562 15.492188 28.464844 15.535156 Z M 28.464844 15.535156 "/>
<path style=" stroke:none;fill-rule:nonzero;fill:rgb(27.843139%,50.980395%,91.37255%);fill-opacity:1;" d="M 31.097656 18.457031 C 31.042969 18.539062 30.988281 18.617188 30.925781 18.691406 C 30.847656 18.796875 30.761719 18.894531 30.667969 18.988281 C 30.464844 19.191406 30.234375 19.367188 29.984375 19.507812 C 29.511719 19.773438 28.976562 19.921875 28.4375 19.945312 C 28.253906 19.953125 28.074219 19.949219 27.894531 19.925781 C 27.765625 19.910156 27.636719 19.886719 27.507812 19.859375 C 27.496094 19.855469 27.488281 19.851562 27.476562 19.851562 C 27.46875 19.855469 27.472656 19.863281 27.472656 19.867188 C 27.46875 19.875 27.476562 19.878906 27.484375 19.878906 C 27.707031 19.933594 27.9375 19.960938 28.167969 19.972656 C 28.238281 19.972656 28.308594 19.972656 28.382812 19.972656 C 28.789062 19.960938 29.195312 19.878906 29.574219 19.730469 C 29.730469 19.671875 29.882812 19.601562 30.027344 19.519531 C 30.296875 19.367188 30.539062 19.164062 30.75 18.941406 C 30.878906 18.800781 30.996094 18.652344 31.101562 18.5 C 31.101562 18.484375 31.101562 18.472656 31.101562 18.457031 C 31.101562 18.457031 31.097656 18.457031 31.097656 18.457031 Z M 31.097656 18.457031 "/>
<path style=" stroke:none;fill-rule:nonzero;fill:rgb(27.843139%,50.980395%,91.37255%);fill-opacity:1;" d="M 25.003906 17.46875 C 25.003906 17.484375 25.011719 17.496094 25.015625 17.511719 C 25.085938 17.78125 25.195312 18.042969 25.339844 18.28125 C 25.523438 18.59375 25.757812 18.871094 26.023438 19.117188 C 26.097656 19.1875 26.171875 19.253906 26.253906 19.316406 C 26.523438 19.511719 26.824219 19.667969 27.140625 19.777344 C 27.25 19.816406 27.359375 19.847656 27.46875 19.875 C 27.476562 19.871094 27.476562 19.859375 27.472656 19.855469 C 27.46875 19.847656 27.457031 19.847656 27.449219 19.84375 C 26.914062 19.710938 26.414062 19.4375 26.003906 19.0625 C 25.832031 18.90625 25.675781 18.734375 25.542969 18.546875 C 25.390625 18.335938 25.261719 18.109375 25.160156 17.871094 C 25.132812 17.804688 25.105469 17.742188 25.082031 17.679688 C 25.058594 17.609375 25.039062 17.542969 25.023438 17.472656 C 25.019531 17.46875 25.007812 17.46875 25.003906 17.46875 Z M 25.003906 17.46875 "/>
<path style=" stroke:none;fill-rule:nonzero;fill:rgb(27.843139%,50.980395%,91.37255%);fill-opacity:1;" d="M 25.222656 15.371094 C 25.058594 15.761719 24.949219 16.183594 24.925781 16.609375 C 24.921875 16.710938 24.921875 16.808594 24.925781 16.910156 C 24.933594 17.097656 24.960938 17.28125 25.003906 17.464844 C 25.003906 17.472656 25.015625 17.476562 25.019531 17.46875 C 25.015625 17.433594 25.007812 17.402344 25 17.367188 C 24.953125 17.09375 24.957031 16.8125 24.96875 16.53125 C 24.972656 16.464844 24.972656 16.398438 24.976562 16.332031 C 25.007812 16.101562 25.0625 15.875 25.136719 15.652344 C 25.167969 15.558594 25.203125 15.464844 25.242188 15.371094 C 25.242188 15.363281 25.230469 15.371094 25.226562 15.367188 L 25.222656 15.367188 Z M 25.222656 15.371094 "/>
<path style=" stroke:none;fill-rule:nonzero;fill:rgb(27.843139%,50.980395%,91.37255%);fill-opacity:1;" d="M 27.246094 16.894531 C 27.25 16.941406 27.257812 16.988281 27.265625 17.035156 C 27.273438 17.070312 27.289062 17.101562 27.304688 17.136719 C 27.398438 17.339844 27.542969 17.523438 27.722656 17.65625 C 27.867188 17.757812 28.039062 17.832031 28.21875 17.84375 C 28.277344 17.84375 28.335938 17.84375 28.394531 17.835938 C 28.484375 17.832031 28.578125 17.8125 28.664062 17.78125 C 28.671875 17.78125 28.675781 17.769531 28.667969 17.769531 C 28.496094 17.832031 28.308594 17.84375 28.132812 17.816406 C 28.09375 17.808594 28.050781 17.804688 28.015625 17.789062 C 27.871094 17.730469 27.730469 17.648438 27.613281 17.542969 C 27.5625 17.496094 27.515625 17.445312 27.472656 17.390625 C 27.371094 17.253906 27.296875 17.097656 27.261719 16.933594 C 27.257812 16.921875 27.257812 16.90625 27.25 16.894531 C 27.25 16.894531 27.25 16.894531 27.246094 16.894531 Z M 27.246094 16.894531 "/>
<path style=" stroke:none;fill-rule:nonzero;fill:rgb(27.843139%,50.980395%,91.37255%);fill-opacity:1;" d="M 28.207031 15.53125 C 28.160156 15.535156 28.109375 15.542969 28.0625 15.554688 C 27.855469 15.601562 27.660156 15.710938 27.515625 15.871094 C 27.472656 15.917969 27.429688 15.964844 27.394531 16.015625 C 27.308594 16.144531 27.261719 16.292969 27.242188 16.441406 C 27.242188 16.445312 27.25 16.445312 27.25 16.441406 C 27.265625 16.375 27.28125 16.3125 27.300781 16.25 C 27.367188 16.074219 27.472656 15.914062 27.613281 15.792969 C 27.761719 15.664062 27.945312 15.582031 28.136719 15.546875 C 28.164062 15.542969 28.1875 15.539062 28.210938 15.535156 C 28.214844 15.535156 28.210938 15.53125 28.207031 15.53125 Z M 28.207031 15.53125 "/>
<path style=" stroke:none;fill-rule:nonzero;fill:rgb(27.843139%,50.980395%,91.37255%);fill-opacity:1;" d="M 26.882812 13.609375 C 26.6875 13.703125 26.5 13.816406 26.328125 13.945312 C 26.097656 14.117188 25.890625 14.316406 25.707031 14.539062 C 25.613281 14.65625 25.519531 14.777344 25.445312 14.910156 C 25.367188 15.058594 25.289062 15.207031 25.226562 15.363281 C 25.226562 15.371094 25.238281 15.371094 25.242188 15.371094 C 25.257812 15.347656 25.265625 15.320312 25.277344 15.292969 C 25.347656 15.144531 25.425781 14.996094 25.515625 14.855469 C 25.660156 14.636719 25.828125 14.4375 26.011719 14.253906 C 26.265625 14 26.5625 13.792969 26.886719 13.636719 C 26.902344 13.628906 26.917969 13.621094 26.933594 13.609375 C 26.925781 13.601562 26.910156 13.609375 26.898438 13.609375 C 26.894531 13.609375 26.890625 13.605469 26.882812 13.609375 Z M 26.882812 13.609375 "/>
<path style=" stroke:none;fill-rule:nonzero;fill:rgb(27.843139%,50.980395%,91.37255%);fill-opacity:1;" d="M 28.222656 13.304688 C 27.847656 13.304688 27.472656 13.371094 27.125 13.507812 C 27.046875 13.535156 26.96875 13.566406 26.894531 13.601562 C 26.894531 13.613281 26.917969 13.605469 26.921875 13.609375 C 26.945312 13.613281 26.960938 13.597656 26.980469 13.589844 C 27.363281 13.421875 27.777344 13.328125 28.191406 13.324219 C 28.375 13.324219 28.554688 13.332031 28.734375 13.355469 C 28.914062 13.378906 29.089844 13.417969 29.265625 13.464844 C 29.398438 13.496094 29.527344 13.535156 29.652344 13.585938 C 29.996094 13.722656 30.308594 13.929688 30.578125 14.183594 C 30.679688 14.28125 30.78125 14.382812 30.871094 14.492188 C 31.035156 14.683594 31.175781 14.894531 31.296875 15.113281 C 31.34375 15.1875 31.386719 15.265625 31.417969 15.34375 C 31.476562 15.476562 31.515625 15.617188 31.539062 15.761719 C 31.542969 15.777344 31.546875 15.757812 31.546875 15.75 C 31.546875 15.714844 31.546875 15.675781 31.542969 15.640625 C 31.507812 15.496094 31.453125 15.355469 31.382812 15.21875 C 31.300781 15.066406 31.210938 14.914062 31.113281 14.765625 C 30.902344 14.453125 30.640625 14.164062 30.335938 13.9375 C 30.023438 13.710938 29.667969 13.542969 29.296875 13.445312 C 28.988281 13.363281 28.671875 13.320312 28.355469 13.304688 C 28.3125 13.304688 28.269531 13.304688 28.222656 13.304688 Z M 28.222656 13.304688 "/>
<path style=" stroke:none;fill-rule:nonzero;fill:rgb(27.843139%,50.980395%,91.37255%);fill-opacity:1;" d="M 31.585938 16.34375 C 31.585938 16.347656 31.585938 16.355469 31.585938 16.363281 C 31.585938 16.488281 31.585938 16.609375 31.585938 16.734375 C 31.589844 16.820312 31.589844 16.90625 31.585938 16.988281 C 31.570312 17.300781 31.5 17.609375 31.386719 17.902344 C 31.378906 17.917969 31.371094 17.9375 31.363281 17.957031 C 31.367188 17.960938 31.371094 17.960938 31.375 17.960938 C 31.382812 17.960938 31.386719 17.960938 31.394531 17.960938 C 31.40625 17.925781 31.421875 17.894531 31.433594 17.863281 C 31.492188 17.714844 31.535156 17.558594 31.5625 17.402344 C 31.597656 17.1875 31.609375 16.972656 31.613281 16.753906 C 31.613281 16.632812 31.613281 16.511719 31.613281 16.390625 C 31.613281 16.375 31.613281 16.359375 31.613281 16.34375 C 31.609375 16.339844 31.605469 16.34375 31.601562 16.34375 C 31.597656 16.34375 31.589844 16.339844 31.585938 16.34375 Z M 31.585938 16.34375 "/>
<path style=" stroke:none;fill-rule:nonzero;fill:rgb(27.843139%,50.980395%,91.37255%);fill-opacity:1;" d="M 31.378906 17.960938 C 31.355469 17.964844 31.355469 17.996094 31.34375 18.011719 C 31.277344 18.160156 31.195312 18.304688 31.109375 18.441406 C 31.105469 18.453125 31.09375 18.472656 31.105469 18.484375 C 31.121094 18.472656 31.132812 18.445312 31.144531 18.429688 C 31.234375 18.292969 31.304688 18.148438 31.375 18 C 31.375 17.988281 31.394531 17.972656 31.382812 17.960938 C 31.382812 17.960938 31.378906 17.960938 31.378906 17.960938 Z M 31.378906 17.960938 "/>
<path style=" stroke:none;fill-rule:nonzero;fill:rgb(27.843139%,50.980395%,91.37255%);fill-opacity:1;" d="M 30.378906 17.335938 C 30.378906 17.339844 30.378906 17.34375 30.378906 17.347656 C 30.378906 17.726562 30.378906 18.101562 30.378906 18.476562 C 30.378906 18.484375 30.386719 18.480469 30.386719 18.480469 C 30.628906 18.480469 30.871094 18.480469 31.113281 18.480469 C 31.117188 18.480469 31.117188 18.476562 31.121094 18.472656 C 31.128906 18.457031 31.140625 18.441406 31.148438 18.425781 C 31.183594 18.375 31.214844 18.324219 31.242188 18.269531 C 31.289062 18.1875 31.328125 18.101562 31.371094 18.015625 C 31.375 18.003906 31.378906 17.996094 31.382812 17.984375 C 31.386719 17.976562 31.390625 17.96875 31.386719 17.960938 C 31.390625 17.960938 31.394531 17.960938 31.398438 17.957031 C 31.414062 17.925781 31.425781 17.890625 31.441406 17.855469 C 31.492188 17.722656 31.53125 17.582031 31.558594 17.445312 C 31.5625 17.410156 31.570312 17.375 31.574219 17.339844 C 31.574219 17.335938 31.570312 17.335938 31.566406 17.335938 C 31.488281 17.335938 31.410156 17.335938 31.328125 17.335938 C 31.011719 17.335938 30.695312 17.335938 30.382812 17.335938 C 30.378906 17.335938 30.378906 17.335938 30.378906 17.335938 Z M 31.367188 17.960938 Z M 31.355469 17.984375 C 31.359375 17.984375 31.355469 17.988281 31.351562 17.984375 C 31.351562 17.984375 31.355469 17.984375 31.355469 17.984375 Z M 31.144531 18.390625 C 31.148438 18.390625 31.144531 18.394531 31.140625 18.390625 C 31.140625 18.390625 31.140625 18.390625 31.144531 18.390625 Z M 31.144531 18.390625 "/>
<path style=" stroke:none;fill-rule:nonzero;fill:rgb(27.843139%,50.980395%,91.37255%);fill-opacity:1;" d="M 31.546875 15.671875 C 31.542969 15.722656 31.542969 15.777344 31.550781 15.832031 C 31.574219 16 31.582031 16.171875 31.585938 16.34375 C 31.601562 16.351562 31.621094 16.339844 31.613281 16.320312 C 31.605469 16.101562 31.597656 15.882812 31.550781 15.671875 Z M 31.546875 15.671875 "/>
<path style=" stroke:none;fill-rule:nonzero;fill:rgb(27.843139%,50.980395%,91.37255%);fill-opacity:1;" d="M 29.4375 16.71875 C 29.433594 16.722656 29.433594 16.726562 29.433594 16.730469 C 29.425781 16.808594 29.410156 16.890625 29.386719 16.964844 C 29.332031 17.152344 29.238281 17.328125 29.109375 17.472656 C 29.066406 17.519531 29.019531 17.5625 28.96875 17.601562 C 28.882812 17.671875 28.78125 17.730469 28.675781 17.769531 C 28.671875 17.769531 28.667969 17.769531 28.667969 17.773438 C 28.667969 17.777344 28.667969 17.78125 28.671875 17.78125 C 28.757812 17.75 28.839844 17.707031 28.914062 17.65625 C 29.074219 17.542969 29.207031 17.390625 29.300781 17.21875 C 29.320312 17.179688 29.339844 17.144531 29.355469 17.105469 C 29.402344 16.988281 29.433594 16.863281 29.441406 16.734375 C 29.441406 16.730469 29.441406 16.726562 29.441406 16.71875 C 29.441406 16.71875 29.4375 16.71875 29.4375 16.71875 Z M 29.4375 16.71875 "/>
<path style=" stroke:none;fill-rule:nonzero;fill:rgb(27.843139%,50.980395%,91.37255%);fill-opacity:1;" d="M 29.027344 15.699219 C 29.023438 15.699219 29.019531 15.699219 29.015625 15.703125 C 29.015625 15.707031 29.023438 15.707031 29.023438 15.710938 C 29.089844 15.753906 29.148438 15.808594 29.199219 15.867188 C 29.277344 15.957031 29.335938 16.0625 29.375 16.171875 C 29.40625 16.257812 29.425781 16.347656 29.4375 16.441406 C 29.4375 16.445312 29.441406 16.445312 29.441406 16.441406 C 29.441406 16.414062 29.441406 16.390625 29.4375 16.367188 C 29.421875 16.199219 29.355469 16.039062 29.253906 15.910156 C 29.210938 15.855469 29.164062 15.808594 29.117188 15.765625 C 29.089844 15.742188 29.0625 15.71875 29.035156 15.699219 C 29.03125 15.699219 29.027344 15.699219 29.027344 15.699219 Z M 29.027344 15.699219 "/>
<path style=" stroke:none;fill-rule:nonzero;fill:rgb(27.843139%,50.980395%,91.37255%);fill-opacity:1;" d="M 28.523438 15.53125 C 28.519531 15.53125 28.519531 15.535156 28.523438 15.535156 C 28.554688 15.539062 28.589844 15.542969 28.621094 15.550781 C 28.753906 15.574219 28.882812 15.621094 28.996094 15.691406 C 29.003906 15.695312 29.007812 15.699219 29.015625 15.703125 C 29.019531 15.703125 29.019531 15.703125 29.023438 15.703125 C 29.027344 15.703125 29.03125 15.703125 29.03125 15.699219 C 29.03125 15.695312 29.027344 15.695312 29.023438 15.691406 C 28.898438 15.605469 28.753906 15.550781 28.601562 15.535156 C 28.574219 15.53125 28.550781 15.53125 28.523438 15.53125 Z M 28.523438 15.53125 "/>
<path style=" stroke:none;fill-rule:nonzero;fill:rgb(27.843139%,50.980395%,91.37255%);fill-opacity:1;" d="M 32.800781 23.6875 C 32.707031 23.683594 32.574219 23.6875 32.527344 23.785156 C 32.429688 24.078125 32.410156 24.390625 32.367188 24.695312 C 32.285156 25.535156 32.199219 26.378906 32.082031 27.21875 C 31.984375 27.96875 31.851562 28.714844 31.859375 29.476562 C 31.855469 29.597656 31.894531 29.726562 31.863281 29.84375 C 31.847656 29.863281 31.808594 29.835938 31.800781 29.875 C 31.722656 30.117188 31.703125 30.371094 31.660156 30.621094 C 31.332031 32.953125 31.101562 35.296875 30.773438 37.628906 C 30.730469 37.964844 30.636719 38.296875 30.683594 38.632812 C 30.683594 38.695312 30.707031 38.753906 30.769531 38.773438 C 31.171875 38.941406 31.613281 38.980469 32.042969 39.039062 C 34.804688 39.382812 37.566406 39.707031 40.320312 40.113281 C 40.628906 40.152344 40.9375 40.214844 41.25 40.199219 C 41.40625 40.191406 41.585938 40.140625 41.652344 39.984375 C 41.753906 39.757812 41.75 39.507812 41.789062 39.265625 C 41.824219 38.878906 41.902344 38.488281 41.835938 38.097656 C 41.789062 37.792969 41.589844 37.53125 41.582031 37.21875 C 41.554688 36.714844 41.621094 36.210938 41.664062 35.710938 C 41.777344 34.617188 41.878906 33.519531 42.058594 32.433594 C 42.132812 32.0625 42.183594 31.667969 42.398438 31.347656 C 42.492188 31.207031 42.683594 31.15625 42.75 30.988281 C 42.886719 30.691406 42.894531 30.355469 42.941406 30.035156 C 43.105469 28.605469 43.320312 27.179688 43.476562 25.75 C 43.496094 25.503906 43.539062 25.257812 43.527344 25.007812 C 43.488281 24.921875 43.371094 24.910156 43.292969 24.878906 C 42.761719 24.75 42.214844 24.699219 41.671875 24.628906 C 39.976562 24.429688 38.277344 24.261719 36.585938 24.058594 C 35.558594 23.941406 34.535156 23.804688 33.503906 23.707031 C 33.273438 23.6875 33.035156 23.683594 32.800781 23.6875 Z M 33.910156 25.6875 C 34.535156 25.699219 35.15625 25.789062 35.78125 25.851562 C 37.414062 26.039062 39.050781 26.21875 40.6875 26.410156 C 41.160156 26.472656 41.636719 26.519531 42.089844 26.671875 C 42.160156 26.691406 42.214844 26.746094 42.222656 26.820312 C 42.253906 27.074219 42.242188 27.332031 42.238281 27.589844 C 42.214844 28.050781 42.167969 28.515625 42.0625 28.96875 C 42.035156 29.105469 41.949219 29.238281 41.808594 29.28125 C 41.5 29.378906 41.164062 29.347656 40.84375 29.335938 C 40.007812 29.285156 39.179688 29.164062 38.34375 29.070312 C 36.902344 28.894531 35.457031 28.734375 34.015625 28.535156 C 33.726562 28.484375 33.429688 28.460938 33.15625 28.351562 C 33.027344 28.304688 33.019531 28.144531 33 28.027344 C 32.980469 27.628906 33.046875 27.230469 33.105469 26.835938 C 33.167969 26.496094 33.222656 26.148438 33.355469 25.832031 C 33.417969 25.699219 33.585938 25.699219 33.707031 25.691406 C 33.777344 25.691406 33.84375 25.6875 33.910156 25.6875 Z M 33.265625 29.765625 C 33.804688 29.769531 34.355469 29.828125 34.875 29.984375 C 34.996094 30.027344 35.144531 30.074219 35.191406 30.214844 C 35.242188 30.347656 35.21875 30.496094 35.21875 30.632812 C 35.1875 31.027344 35.121094 31.417969 35.011719 31.792969 C 34.949219 31.976562 34.867188 32.199219 34.667969 32.265625 C 34.4375 32.300781 34.203125 32.242188 33.972656 32.234375 C 33.640625 32.195312 33.300781 32.199219 32.976562 32.117188 C 32.820312 32.085938 32.667969 31.996094 32.605469 31.84375 C 32.511719 31.652344 32.550781 31.433594 32.546875 31.230469 C 32.570312 30.8125 32.617188 30.394531 32.75 29.996094 C 32.78125 29.914062 32.820312 29.816406 32.917969 29.796875 C 33.03125 29.765625 33.148438 29.769531 33.265625 29.765625 Z M 36.636719 30.140625 C 37.054688 30.152344 37.46875 30.222656 37.875 30.308594 C 38.078125 30.355469 38.3125 30.425781 38.40625 30.636719 C 38.484375 30.796875 38.449219 30.988281 38.453125 31.164062 C 38.429688 31.53125 38.402344 31.90625 38.3125 32.265625 C 38.265625 32.449219 38.128906 32.613281 37.941406 32.660156 C 37.753906 32.710938 37.558594 32.691406 37.367188 32.695312 C 37.023438 32.675781 36.679688 32.644531 36.339844 32.589844 C 36.144531 32.558594 35.9375 32.449219 35.878906 32.25 C 35.804688 32.027344 35.84375 31.785156 35.855469 31.554688 C 35.894531 31.21875 35.945312 30.878906 36.042969 30.554688 C 36.089844 30.390625 36.195312 30.222656 36.371094 30.171875 C 36.457031 30.144531 36.546875 30.144531 36.636719 30.140625 Z M 40.398438 30.644531 C 40.75 30.652344 41.109375 30.667969 41.445312 30.777344 C 41.578125 30.820312 41.730469 30.90625 41.734375 31.0625 C 41.75 31.46875 41.691406 31.875 41.644531 32.277344 C 41.605469 32.503906 41.589844 32.75 41.445312 32.941406 C 41.324219 33.089844 41.113281 33.109375 40.933594 33.101562 C 40.640625 33.109375 40.351562 33.050781 40.0625 33.015625 C 39.808594 32.96875 39.527344 32.964844 39.304688 32.8125 C 39.125 32.671875 39.121094 32.421875 39.132812 32.210938 C 39.171875 31.710938 39.234375 31.210938 39.296875 30.707031 C 39.320312 30.671875 39.402344 30.699219 39.445312 30.6875 C 39.761719 30.671875 40.078125 30.648438 40.398438 30.644531 Z M 32.855469 32.832031 C 33.339844 32.851562 33.816406 32.945312 34.292969 33.011719 C 34.425781 33.03125 34.554688 33.050781 34.6875 33.070312 C 34.679688 33.617188 34.691406 34.164062 34.640625 34.707031 C 34.617188 34.894531 34.558594 35.117188 34.363281 35.1875 C 34.195312 35.234375 34.019531 35.207031 33.847656 35.214844 C 33.34375 35.21875 32.839844 35.132812 32.351562 35 C 32.230469 34.96875 32.117188 34.882812 32.113281 34.75 C 32.097656 34.429688 32.15625 34.113281 32.191406 33.796875 C 32.238281 33.515625 32.28125 33.226562 32.410156 32.972656 C 32.480469 32.855469 32.632812 32.851562 32.753906 32.835938 C 32.789062 32.832031 32.824219 32.832031 32.855469 32.832031 Z M 36.21875 33.234375 C 36.605469 33.246094 36.988281 33.308594 37.367188 33.378906 C 37.589844 33.433594 37.84375 33.476562 37.988281 33.667969 C 38.121094 33.871094 38.074219 34.128906 38.054688 34.355469 C 38.011719 34.683594 37.996094 35.023438 37.886719 35.335938 C 37.828125 35.511719 37.65625 35.628906 37.476562 35.636719 C 37.011719 35.679688 36.542969 35.59375 36.082031 35.550781 C 35.878906 35.523438 35.644531 35.503906 35.507812 35.335938 C 35.390625 35.1875 35.421875 34.988281 35.417969 34.816406 C 35.445312 34.460938 35.503906 34.105469 35.585938 33.761719 C 35.636719 33.566406 35.71875 33.335938 35.929688 33.269531 C 36.023438 33.242188 36.121094 33.234375 36.21875 33.234375 Z M 39.636719 33.679688 C 40.074219 33.683594 40.515625 33.722656 40.945312 33.8125 C 41.105469 33.851562 41.292969 33.910156 41.378906 34.066406 C 41.425781 34.230469 41.382812 34.40625 41.378906 34.574219 C 41.292969 35.660156 41.128906 36.742188 40.984375 37.828125 C 40.933594 38.195312 40.886719 38.570312 40.832031 38.9375 C 40.582031 38.96875 40.328125 38.953125 40.078125 38.957031 C 39.636719 38.953125 39.195312 38.945312 38.761719 38.859375 C 38.613281 38.835938 38.460938 38.753906 38.398438 38.605469 C 38.320312 38.429688 38.359375 38.230469 38.351562 38.046875 C 38.382812 37.59375 38.46875 37.148438 38.523438 36.695312 C 38.621094 35.984375 38.695312 35.265625 38.78125 34.550781 C 38.824219 34.296875 38.84375 34.027344 38.957031 33.792969 C 39.011719 33.6875 39.152344 33.699219 39.253906 33.683594 C 39.382812 33.679688 39.507812 33.679688 39.636719 33.679688 Z M 32.503906 35.832031 C 33.011719 35.839844 33.519531 35.898438 34.011719 36.023438 C 34.148438 36.058594 34.316406 36.113281 34.359375 36.265625 C 34.425781 36.507812 34.398438 36.769531 34.375 37.015625 C 34.320312 37.398438 34.230469 37.785156 34.03125 38.121094 C 33.972656 38.214844 33.882812 38.316406 33.757812 38.296875 C 33.265625 38.210938 32.761719 38.175781 32.269531 38.074219 C 32.09375 38.039062 31.90625 37.941406 31.859375 37.753906 C 31.808594 37.554688 31.84375 37.347656 31.851562 37.144531 C 31.890625 36.738281 31.921875 36.328125 32.054688 35.941406 C 32.117188 35.828125 32.265625 35.847656 32.375 35.835938 C 32.417969 35.835938 32.460938 35.832031 32.503906 35.832031 Z M 35.804688 36.160156 C 36.308594 36.171875 36.808594 36.265625 37.300781 36.363281 C 37.402344 36.394531 37.523438 36.398438 37.605469 36.464844 C 37.679688 36.597656 37.660156 36.757812 37.667969 36.90625 C 37.65625 37.371094 37.609375 37.839844 37.480469 38.289062 C 37.425781 38.464844 37.320312 38.664062 37.125 38.714844 C 36.9375 38.714844 36.75 38.664062 36.5625 38.644531 C 36.179688 38.585938 35.792969 38.550781 35.417969 38.457031 C 35.261719 38.417969 35.097656 38.332031 35.0625 38.164062 C 35.007812 37.902344 35.0625 37.636719 35.070312 37.371094 C 35.105469 37.058594 35.113281 36.730469 35.242188 36.433594 C 35.328125 36.242188 35.546875 36.152344 35.746094 36.160156 C 35.765625 36.160156 35.785156 36.160156 35.804688 36.160156 Z M 35.804688 36.160156 "/>
<path style=" stroke:none;fill-rule:nonzero;fill:rgb(4.313726%,23.921569%,32.156864%);fill-opacity:1;" d="M 22.441406 1.6875 C 22.1875 1.6875 21.921875 1.734375 21.714844 1.886719 C 21.597656 1.972656 21.5 2.089844 21.441406 2.222656 C 21.417969 2.253906 21.46875 2.238281 21.484375 2.242188 C 21.511719 2.242188 21.542969 2.253906 21.550781 2.21875 C 21.664062 2.039062 21.832031 1.886719 22.035156 1.8125 C 22.144531 1.773438 22.261719 1.757812 22.378906 1.765625 C 22.511719 1.769531 22.648438 1.765625 22.78125 1.78125 C 22.988281 1.804688 23.179688 1.925781 23.300781 2.09375 C 23.425781 2.257812 23.492188 2.460938 23.515625 2.660156 C 23.523438 2.8125 23.527344 2.964844 23.488281 3.109375 C 23.4375 3.320312 23.332031 3.523438 23.15625 3.65625 C 23.058594 3.738281 22.9375 3.789062 22.816406 3.8125 C 22.703125 3.839844 22.589844 3.863281 22.476562 3.859375 C 22.328125 3.863281 22.179688 3.855469 22.03125 3.859375 C 22 3.859375 21.964844 3.855469 21.933594 3.859375 C 21.949219 3.875 21.980469 3.875 22.003906 3.882812 C 22.152344 3.917969 22.300781 3.929688 22.453125 3.921875 C 22.679688 3.917969 22.914062 3.890625 23.117188 3.777344 C 23.300781 3.675781 23.4375 3.503906 23.5 3.304688 C 23.578125 3.070312 23.585938 2.820312 23.5625 2.578125 C 23.535156 2.355469 23.457031 2.132812 23.300781 1.972656 C 23.132812 1.796875 22.890625 1.71875 22.65625 1.695312 C 22.582031 1.6875 22.511719 1.6875 22.441406 1.6875 Z M 22.441406 1.6875 "/>
<path style=" stroke:none;fill-rule:nonzero;fill:rgb(4.313726%,23.921569%,32.156864%);fill-opacity:1;" d="M 22.449219 0.308594 C 21.636719 0.304688 20.855469 0.722656 20.402344 1.402344 C 19.917969 2.148438 19.800781 3.191406 20.234375 3.992188 C 20.578125 4.53125 21.101562 4.910156 21.613281 5.273438 C 21.835938 5.492188 21.714844 5.859375 21.773438 6.136719 C 21.792969 6.609375 21.800781 7.085938 21.8125 7.558594 C 18.628906 7.589844 15.445312 7.628906 12.261719 7.625 C 11.023438 8.160156 9.730469 8.882812 9.121094 10.152344 C 8.566406 11.148438 8.542969 12.328125 8.441406 13.425781 C 7.828125 13.566406 7.171875 13.671875 6.679688 14.101562 C 6.152344 14.515625 5.667969 15.074219 5.640625 15.777344 C 5.558594 16.871094 5.601562 17.972656 5.683594 19.066406 C 5.984375 20.234375 7.160156 21.027344 8.328125 21.113281 C 8.589844 21.175781 8.414062 21.648438 8.496094 21.875 C 8.566406 22.957031 8.535156 24.109375 9.109375 25.074219 C 9.570312 26.007812 10.394531 26.679688 11.273438 27.199219 C 11.398438 27.316406 11.664062 27.417969 11.648438 27.617188 C 11.34375 27.914062 10.875 27.988281 10.496094 28.167969 C 9.292969 28.589844 8.164062 29.246094 7.28125 30.179688 C 5.855469 31.492188 4.882812 33.3125 4.703125 35.253906 C 4.488281 36.9375 4.605469 38.636719 4.488281 40.324219 C 3.617188 40.75 2.855469 41.4375 2.492188 42.351562 C 2.171875 43.164062 2.191406 44.070312 2.308594 44.921875 C 2.480469 45.765625 3.042969 46.496094 3.707031 47.019531 C 3.910156 47.132812 4.136719 47.339844 4.339844 47.121094 C 4.644531 46.996094 4.964844 46.597656 4.695312 46.292969 C 4.207031 45.742188 3.640625 45.171875 3.558594 44.402344 C 3.488281 43.78125 3.480469 43.101562 3.859375 42.570312 C 4.597656 41.269531 6.546875 41 7.664062 41.957031 C 8.226562 42.417969 8.578125 43.113281 8.582031 43.84375 C 8.660156 44.320312 8.566406 44.886719 8.886719 45.285156 C 9.175781 45.558594 9.628906 45.382812 9.785156 45.054688 C 10.148438 44.277344 9.933594 43.363281 9.671875 42.585938 C 9.359375 41.652344 8.65625 40.878906 7.769531 40.453125 C 7.203125 40.160156 6.570312 39.960938 5.929688 39.996094 C 5.980469 38.300781 5.890625 36.59375 6.105469 34.90625 C 6.285156 33.625 6.875 32.417969 7.78125 31.496094 C 8.425781 30.859375 9.097656 30.207031 9.910156 29.792969 C 10.117188 29.707031 10.003906 30.042969 10.039062 30.140625 C 10.101562 32.976562 10.015625 35.8125 10.121094 38.648438 C 10.265625 40.660156 11.519531 42.457031 13.128906 43.605469 C 14.039062 44.269531 15.09375 44.699219 16.179688 44.964844 C 16.554688 45.105469 16.421875 45.582031 16.582031 45.875 C 16.859375 46.574219 17.382812 47.1875 18.023438 47.582031 C 18.695312 47.824219 19.433594 47.691406 20.136719 47.738281 C 22.285156 47.746094 24.4375 47.730469 26.589844 47.722656 C 27.359375 47.25 28.109375 46.621094 28.351562 45.714844 C 28.4375 45.371094 28.546875 44.925781 28.957031 44.863281 C 30.402344 44.566406 31.710938 43.777344 32.726562 42.71875 C 33.25 42.230469 33.675781 41.648438 34.015625 41.023438 C 34.324219 40.734375 34.804688 40.890625 35.179688 40.878906 C 37.257812 41.054688 39.320312 41.429688 41.40625 41.480469 C 42.03125 41.527344 42.691406 41.199219 42.925781 40.597656 C 43.238281 39.917969 43.136719 39.125 43.457031 38.457031 C 43.726562 38.179688 44.183594 38.285156 44.511719 38.113281 C 45.402344 37.800781 45.738281 36.808594 45.894531 35.960938 C 46.066406 34.9375 46.1875 33.890625 46.140625 32.847656 C 46 31.984375 45.199219 31.457031 44.472656 31.097656 C 44.15625 30.945312 44.375 30.527344 44.351562 30.269531 C 44.535156 28.53125 44.828125 26.804688 44.9375 25.058594 C 44.914062 24.359375 44.464844 23.570312 43.699219 23.515625 C 41.5625 23.171875 39.40625 22.929688 37.246094 22.71875 C 37.011719 22.644531 36.625 22.816406 36.488281 22.542969 C 36.386719 22.082031 36.457031 21.597656 36.433594 21.128906 C 37.523438 21.101562 38.570312 20.457031 39.019531 19.457031 C 39.445312 18.65625 39.320312 17.710938 39.335938 16.839844 C 39.320312 16.042969 39.199219 15.195312 38.65625 14.570312 C 38.152344 13.933594 37.34375 13.550781 36.527344 13.597656 C 36.339844 13.472656 36.464844 13.042969 36.398438 12.796875 C 36.308594 11.320312 35.867188 9.75 34.679688 8.785156 C 34.070312 8.269531 33.335938 7.902344 32.601562 7.625 C 29.445312 7.632812 26.289062 7.589844 23.132812 7.558594 C 23.171875 6.84375 23.09375 6.117188 23.214844 5.410156 C 23.367188 5.070312 23.820312 5.027344 24.042969 4.742188 C 24.695312 4.179688 25.019531 3.292969 24.902344 2.445312 C 24.800781 1.511719 24.042969 0.730469 23.183594 0.417969 C 22.949219 0.335938 22.699219 0.304688 22.449219 0.308594 Z M 22.445312 1.683594 C 22.902344 1.644531 23.429688 1.871094 23.527344 2.359375 C 23.648438 2.875 23.601562 3.617188 23.027344 3.835938 C 22.585938 3.949219 22.023438 4.03125 21.636719 3.730469 C 21.214844 3.265625 21.1875 2.445312 21.609375 1.972656 C 21.816406 1.734375 22.144531 1.679688 22.445312 1.683594 Z M 22.472656 9.011719 C 25.863281 9.011719 29.25 9.011719 32.636719 9.011719 C 33.367188 9.378906 34.054688 9.859375 34.503906 10.550781 C 35.0625 11.296875 34.914062 12.292969 34.980469 13.167969 C 35.023438 16.242188 35.066406 19.320312 35.0625 22.398438 C 34.136719 22.390625 33.207031 22.246094 32.28125 22.292969 C 31.671875 22.476562 31.226562 23.066406 31.113281 23.683594 C 30.914062 24.476562 30.949219 25.3125 30.730469 26.097656 C 30.308594 26.347656 29.777344 26.191406 29.308594 26.246094 C 24.316406 26.28125 19.320312 26.3125 14.324219 26.242188 C 13.574219 26.1875 12.792969 26.277344 12.0625 26.082031 C 11.21875 25.722656 10.503906 25.027344 10.136719 24.183594 C 9.855469 23.480469 9.984375 22.699219 9.917969 21.960938 C 9.871094 20.3125 9.839844 18.667969 9.84375 17.019531 C 10.445312 17.019531 11.046875 17.019531 11.648438 17.019531 C 11.976562 18.164062 12.382812 19.367188 13.320312 20.167969 C 14.203125 21.039062 15.480469 21.460938 16.710938 21.390625 C 18.683594 21.363281 20.542969 19.945312 21.070312 18.039062 C 21.203125 17.625 21.28125 17.195312 21.371094 16.773438 C 22.089844 16.765625 22.804688 16.808594 23.519531 16.835938 C 23.699219 18.722656 24.9375 20.53125 26.753906 21.167969 C 28.355469 21.691406 30.253906 21.378906 31.492188 20.195312 C 32.566406 19.25 33.222656 17.824219 33.109375 16.382812 C 33.007812 14.441406 31.621094 12.632812 29.746094 12.085938 C 28.226562 11.613281 26.457031 11.921875 25.269531 13.011719 C 24.507812 13.675781 23.953125 14.554688 23.671875 15.527344 C 22.96875 15.546875 22.207031 15.515625 21.484375 15.464844 C 21.09375 15.457031 21.097656 14.960938 20.941406 14.707031 C 20.40625 13.601562 19.488281 12.667969 18.332031 12.214844 C 17.507812 11.8125 16.5625 11.878906 15.671875 11.9375 C 14.679688 12.105469 13.75 12.628906 13.0625 13.355469 C 12.460938 14 12.09375 14.820312 11.832031 15.65625 C 11.164062 15.664062 10.496094 15.671875 9.832031 15.683594 C 9.882812 14.265625 9.804688 12.832031 10.007812 11.425781 C 10.308594 10.300781 11.28125 9.480469 12.3125 9.011719 C 15.699219 9.011719 19.085938 9.011719 22.472656 9.011719 Z M 28.359375 13.304688 C 29.550781 13.273438 30.699219 13.953125 31.28125 14.992188 C 31.738281 15.652344 31.589844 16.492188 31.597656 17.246094 C 31.417969 18.796875 29.898438 19.992188 28.363281 19.972656 C 27.59375 20.027344 26.8125 19.753906 26.203125 19.289062 C 25.386719 18.632812 24.804688 17.609375 24.925781 16.535156 C 25.015625 14.785156 26.546875 13.171875 28.359375 13.304688 Z M 16.667969 13.3125 C 17.59375 13.285156 18.480469 13.730469 19.082031 14.429688 C 19.960938 15.289062 20.070312 16.667969 19.707031 17.789062 C 19.285156 18.988281 18.113281 19.960938 16.8125 19.957031 C 16.070312 20.019531 15.273438 19.9375 14.671875 19.453125 C 13.871094 18.871094 13.207031 17.992188 13.203125 16.960938 C 13.113281 15.917969 13.453125 14.816406 14.269531 14.128906 C 14.910156 13.523438 15.800781 13.285156 16.667969 13.3125 Z M 32.894531 23.652344 C 34.941406 23.792969 36.96875 24.097656 39.007812 24.304688 C 40.457031 24.492188 41.929688 24.574219 43.363281 24.875 C 43.714844 24.890625 43.484375 25.304688 43.519531 25.53125 C 43.332031 27.234375 43.117188 28.9375 42.875 30.632812 C 42.859375 30.980469 42.59375 31.203125 42.386719 31.445312 C 42.058594 32.046875 42.0625 32.769531 41.941406 33.433594 C 41.800781 34.734375 41.597656 36.039062 41.636719 37.351562 C 41.765625 37.789062 41.921875 38.230469 41.863281 38.699219 C 41.804688 39.160156 41.851562 39.679688 41.601562 40.089844 C 41.140625 40.363281 40.574219 40.136719 40.078125 40.101562 C 37.140625 39.675781 34.191406 39.371094 31.257812 38.925781 C 31.046875 38.867188 30.640625 38.875 30.660156 38.558594 C 30.699219 37.582031 30.910156 36.617188 31.003906 35.644531 C 31.257812 33.734375 31.429688 31.808594 31.769531 29.914062 C 31.894531 29.015625 31.898438 28.101562 32.054688 27.207031 C 32.222656 26.097656 32.261719 24.96875 32.480469 23.867188 C 32.511719 23.664062 32.726562 23.644531 32.894531 23.652344 Z M 21.277344 27.703125 C 24.347656 27.71875 27.421875 27.710938 30.492188 27.769531 C 30.332031 29.847656 30.023438 31.914062 29.789062 33.988281 C 29.613281 35.589844 29.375 37.1875 29.304688 38.796875 C 29.308594 39.527344 30.011719 40.007812 30.648438 40.183594 C 31.308594 40.414062 32.023438 40.425781 32.695312 40.585938 C 32.789062 40.816406 32.53125 41.042969 32.421875 41.230469 C 31.5625 42.265625 30.375 43.015625 29.101562 43.429688 C 28.027344 43.664062 26.914062 43.566406 25.820312 43.613281 C 22.679688 43.625 19.53125 43.683594 16.394531 43.492188 C 15.148438 43.429688 14.027344 42.734375 13.132812 41.910156 C 12.359375 41.164062 11.875 40.171875 11.464844 39.199219 C 11.433594 36.273438 11.402344 33.347656 11.371094 30.421875 C 11.851562 29.355469 12.582031 28.257812 13.761719 27.90625 C 14.621094 27.691406 15.527344 27.765625 16.40625 27.722656 C 18.03125 27.699219 19.652344 27.703125 21.277344 27.703125 Z M 43.851562 32.441406 C 44.203125 32.417969 44.667969 32.507812 44.742188 32.921875 C 44.914062 33.742188 44.746094 34.585938 44.65625 35.40625 C 44.570312 35.984375 44.476562 36.71875 43.871094 36.988281 C 43.613281 37.03125 43.25 37.078125 43.058594 36.867188 C 42.929688 36.378906 43.09375 35.863281 43.109375 35.367188 C 43.21875 34.390625 43.308594 33.410156 43.457031 32.441406 C 43.589844 32.441406 43.71875 32.441406 43.851562 32.441406 Z M 43.851562 32.441406 "/>
<path style=" stroke:none;fill-rule:nonzero;fill:rgb(4.313726%,23.921569%,32.156864%);fill-opacity:1;" d="M 25.371094 22.34375 C 24.527344 22.601562 23.78125 23.199219 22.859375 23.179688 C 21.808594 23.296875 20.785156 22.960938 19.851562 22.507812 C 19.519531 22.273438 18.917969 22.570312 19.050781 22.996094 C 19.550781 24.078125 20.855469 24.464844 21.960938 24.503906 C 23.304688 24.5625 24.785156 24.238281 25.71875 23.203125 C 26.039062 22.894531 25.824219 22.328125 25.371094 22.34375 Z M 25.371094 22.34375 "/>
<path style=" stroke:none;fill-rule:nonzero;fill:rgb(4.313726%,23.921569%,32.156864%);fill-opacity:1;" d="M 16.484375 15.578125 C 15.660156 15.613281 15.144531 16.695312 15.691406 17.335938 C 16.136719 17.96875 17.191406 17.867188 17.519531 17.167969 C 17.964844 16.4375 17.304688 15.519531 16.484375 15.578125 Z M 16.484375 15.578125 "/>
<path style=" stroke:none;fill-rule:nonzero;fill:rgb(4.313726%,23.921569%,32.156864%);fill-opacity:1;" d="M 28.308594 15.570312 C 27.414062 15.578125 26.925781 16.816406 27.578125 17.425781 C 27.878906 17.824219 28.445312 17.910156 28.847656 17.617188 C 29.585938 17.207031 29.613281 15.859375 28.726562 15.621094 C 28.589844 15.578125 28.449219 15.5625 28.308594 15.570312 Z M 28.308594 15.570312 "/>
<path style=" stroke:none;fill-rule:nonzero;fill:rgb(27.843139%,50.980395%,91.37255%);fill-opacity:1;" d="M 23.765625 2.761719 C 23.765625 2.066406 23.203125 1.5 22.507812 1.5 C 21.8125 1.5 21.246094 2.066406 21.246094 2.761719 C 21.246094 3.457031 21.8125 4.023438 22.507812 4.023438 C 23.203125 4.023438 23.765625 3.457031 23.765625 2.761719 Z M 23.765625 2.761719 "/>
<path style=" stroke:none;fill-rule:nonzero;fill:rgb(4.313726%,23.921569%,32.156864%);fill-opacity:1;" d="M 32.433594 35.859375 C 32.292969 35.871094 32.058594 35.839844 32.039062 36.039062 C 31.898438 36.605469 31.84375 37.199219 31.890625 37.78125 C 32.046875 38.097656 32.46875 38.066406 32.765625 38.136719 C 33.132812 38.167969 33.507812 38.300781 33.875 38.234375 C 34.121094 38.058594 34.183594 37.722656 34.269531 37.449219 C 34.347656 37.054688 34.441406 36.625 34.316406 36.234375 C 34.164062 36.007812 33.839844 36.019531 33.597656 35.957031 C 33.214844 35.894531 32.824219 35.855469 32.433594 35.859375 Z M 32.433594 35.859375 "/>
<path style=" stroke:none;fill-rule:nonzero;fill:rgb(4.313726%,23.921569%,32.156864%);fill-opacity:1;" d="M 32.8125 32.859375 C 32.609375 32.839844 32.386719 32.941406 32.351562 33.164062 C 32.203125 33.675781 32.136719 34.214844 32.136719 34.746094 C 32.15625 35.003906 32.488281 34.992188 32.671875 35.054688 C 33.234375 35.175781 33.832031 35.273438 34.398438 35.144531 C 34.671875 34.964844 34.601562 34.582031 34.648438 34.300781 C 34.675781 33.898438 34.675781 33.488281 34.671875 33.085938 C 34.054688 33.003906 33.4375 32.871094 32.8125 32.859375 Z M 32.8125 32.859375 "/>
<path style=" stroke:none;fill-rule:nonzero;fill:rgb(4.313726%,23.921569%,32.156864%);fill-opacity:1;" d="M 35.757812 36.1875 C 35.511719 36.164062 35.265625 36.3125 35.21875 36.566406 C 35.105469 37.058594 35.054688 37.570312 35.070312 38.074219 C 35.082031 38.40625 35.46875 38.453125 35.722656 38.496094 C 36.191406 38.570312 36.667969 38.660156 37.136719 38.703125 C 37.53125 38.472656 37.527344 37.957031 37.597656 37.558594 C 37.617188 37.207031 37.699219 36.835938 37.59375 36.492188 C 37.273438 36.328125 36.886719 36.316406 36.535156 36.246094 C 36.277344 36.214844 36.019531 36.179688 35.757812 36.1875 Z M 35.757812 36.1875 "/>
<path style=" stroke:none;fill-rule:nonzero;fill:rgb(4.313726%,23.921569%,32.156864%);fill-opacity:1;" d="M 36.148438 33.253906 C 35.808594 33.25 35.601562 33.585938 35.574219 33.894531 C 35.507812 34.335938 35.378906 34.800781 35.484375 35.246094 C 35.613281 35.527344 35.992188 35.5 36.246094 35.554688 C 36.703125 35.589844 37.179688 35.675781 37.636719 35.574219 C 37.941406 35.449219 37.925781 35.054688 37.984375 34.78125 C 38.003906 34.445312 38.125 34.082031 38.007812 33.753906 C 37.808594 33.414062 37.351562 33.414062 37.011719 33.339844 C 36.726562 33.296875 36.4375 33.25 36.148438 33.253906 Z M 36.148438 33.253906 "/>
<path style=" stroke:none;fill-rule:nonzero;fill:rgb(4.313726%,23.921569%,32.156864%);fill-opacity:1;" d="M 36.597656 30.167969 C 36.328125 30.144531 36.085938 30.339844 36.046875 30.605469 C 35.945312 31.121094 35.808594 31.648438 35.882812 32.171875 C 35.949219 32.535156 36.382812 32.585938 36.683594 32.617188 C 37.125 32.644531 37.585938 32.730469 38.019531 32.605469 C 38.339844 32.4375 38.328125 32.011719 38.386719 31.703125 C 38.402344 31.339844 38.523438 30.929688 38.34375 30.589844 C 38.089844 30.28125 37.636719 30.296875 37.277344 30.222656 C 37.050781 30.195312 36.824219 30.164062 36.597656 30.167969 Z M 36.597656 30.167969 "/>
<path style=" stroke:none;fill-rule:nonzero;fill:rgb(4.313726%,23.921569%,32.156864%);fill-opacity:1;" d="M 33.785156 25.710938 C 33.617188 25.699219 33.40625 25.710938 33.355469 25.910156 C 33.132812 26.511719 33.070312 27.164062 33.015625 27.800781 C 33.003906 28.011719 33.007812 28.332031 33.277344 28.375 C 34.230469 28.589844 35.210938 28.65625 36.179688 28.789062 C 37.785156 28.972656 39.386719 29.199219 40.996094 29.332031 C 41.300781 29.3125 41.660156 29.367188 41.925781 29.179688 C 42.128906 28.917969 42.105469 28.554688 42.164062 28.242188 C 42.199219 27.757812 42.269531 27.261719 42.1875 26.78125 C 42 26.605469 41.703125 26.609375 41.46875 26.542969 C 39.992188 26.308594 38.503906 26.191406 37.019531 26.007812 C 35.941406 25.90625 34.867188 25.726562 33.785156 25.710938 Z M 33.785156 25.710938 "/>
<path style=" stroke:none;fill-rule:nonzero;fill:rgb(4.313726%,23.921569%,32.156864%);fill-opacity:1;" d="M 33.214844 29.78125 C 33.050781 29.777344 32.839844 29.789062 32.785156 29.980469 C 32.566406 30.535156 32.570312 31.152344 32.601562 31.734375 C 32.652344 32.066406 33.058594 32.128906 33.328125 32.15625 C 33.773438 32.183594 34.222656 32.292969 34.667969 32.238281 C 34.964844 32.09375 35.003906 31.707031 35.082031 31.421875 C 35.140625 31.03125 35.273438 30.621094 35.167969 30.230469 C 35.03125 29.960938 34.664062 29.96875 34.40625 29.894531 C 34.015625 29.828125 33.613281 29.78125 33.214844 29.78125 Z M 33.214844 29.78125 "/>
<path style=" stroke:none;fill-rule:nonzero;fill:rgb(4.313726%,23.921569%,32.156864%);fill-opacity:1;" d="M 40.269531 30.671875 C 39.957031 30.683594 39.632812 30.679688 39.324219 30.71875 C 39.25 31.292969 39.140625 31.875 39.160156 32.457031 C 39.167969 32.742188 39.449219 32.90625 39.707031 32.933594 C 40.203125 33.023438 40.714844 33.113281 41.21875 33.054688 C 41.585938 32.917969 41.585938 32.453125 41.644531 32.128906 C 41.667969 31.765625 41.757812 31.398438 41.710938 31.035156 C 41.589844 30.746094 41.207031 30.738281 40.941406 30.695312 C 40.71875 30.671875 40.496094 30.667969 40.269531 30.671875 Z M 40.269531 30.671875 "/>
<path style=" stroke:none;fill-rule:nonzero;fill:rgb(50.196081%,0%,0%);fill-opacity:1;" d="M 39.460938 33.695312 C 39.285156 33.714844 38.988281 33.648438 38.9375 33.886719 C 38.730469 34.695312 38.707031 35.542969 38.582031 36.367188 C 38.507812 37.082031 38.332031 37.796875 38.390625 38.515625 C 38.46875 38.855469 38.890625 38.863281 39.171875 38.898438 C 39.710938 38.941406 40.261719 38.960938 40.796875 38.910156 C 41.027344 37.476562 41.222656 36.035156 41.359375 34.589844 C 41.355469 34.371094 41.464844 34.035156 41.191406 33.925781 C 40.683594 33.722656 40.121094 33.714844 39.578125 33.691406 C 39.539062 33.691406 39.5 33.691406 39.460938 33.695312 Z M 39.460938 33.695312 "/>
<path style=" stroke:none;fill-rule:nonzero;fill:rgb(100%,100%,100%);fill-opacity:1;" d="M 20.019531 27.761719 C 18.164062 27.777344 16.308594 27.738281 14.453125 27.816406 C 13.359375 27.886719 12.371094 28.617188 11.863281 29.570312 C 11.710938 29.859375 11.527344 30.144531 11.414062 30.445312 C 11.441406 33.363281 11.46875 36.285156 11.496094 39.203125 C 11.902344 40.085938 12.304688 40.992188 12.992188 41.703125 C 13.757812 42.5 14.734375 43.132812 15.816406 43.390625 C 16.722656 43.527344 17.644531 43.511719 18.558594 43.554688 C 21.40625 43.605469 24.253906 43.605469 27.101562 43.566406 C 27.972656 43.523438 28.890625 43.582031 29.691406 43.171875 C 30.777344 42.699219 31.777344 41.996094 32.503906 41.058594 C 32.570312 40.9375 32.710938 40.796875 32.679688 40.648438 C 32.453125 40.507812 32.152344 40.542969 31.894531 40.484375 C 31.082031 40.363281 30.164062 40.246094 29.585938 39.597656 C 29.335938 39.304688 29.191406 38.914062 29.261719 38.523438 C 29.453125 36.238281 29.765625 33.964844 30.03125 31.683594 C 30.171875 30.402344 30.375 29.121094 30.457031 27.835938 C 30.457031 27.710938 30.253906 27.816406 30.183594 27.78125 C 26.796875 27.757812 23.410156 27.761719 20.019531 27.761719 Z M 20.019531 27.761719 "/>
<path style=" stroke:none;fill-rule:nonzero;fill:rgb(100%,100%,100%);fill-opacity:1;" d="M 12.328125 9.042969 C 11.695312 9.347656 11.09375 9.734375 10.660156 10.292969 C 10.25 10.769531 9.980469 11.367188 9.964844 12 C 9.886719 13.222656 9.90625 14.445312 9.886719 15.664062 C 10.523438 15.660156 11.167969 15.664062 11.804688 15.613281 C 12.078125 14.734375 12.464844 13.859375 13.148438 13.214844 C 14.039062 12.296875 15.328125 11.796875 16.605469 11.835938 C 17.890625 11.808594 19.148438 12.402344 20.039062 13.3125 C 20.558594 13.875 20.964844 14.546875 21.207031 15.277344 C 21.367188 15.507812 21.710938 15.421875 21.949219 15.460938 C 22.515625 15.484375 23.082031 15.5 23.648438 15.476562 C 23.886719 14.730469 24.222656 14 24.78125 13.433594 C 25.617188 12.46875 26.851562 11.84375 28.132812 11.839844 C 29.199219 11.78125 30.273438 12.117188 31.144531 12.726562 C 32.242188 13.511719 33.015625 14.777344 33.117188 16.132812 C 33.136719 16.859375 33.160156 17.609375 32.875 18.296875 C 32.496094 19.296875 31.75 20.132812 30.878906 20.734375 C 30.164062 21.203125 29.3125 21.441406 28.457031 21.425781 C 27.371094 21.488281 26.253906 21.183594 25.417969 20.46875 C 24.363281 19.625 23.65625 18.363281 23.511719 17.011719 C 23.523438 16.847656 23.34375 16.84375 23.222656 16.855469 C 22.621094 16.828125 22.011719 16.828125 21.410156 16.777344 C 21.234375 17.726562 21 18.695312 20.414062 19.484375 C 19.648438 20.554688 18.40625 21.277344 17.09375 21.40625 C 16.378906 21.417969 15.640625 21.46875 14.960938 21.203125 C 13.425781 20.707031 12.25 19.347656 11.847656 17.800781 C 11.777344 17.570312 11.707031 17.335938 11.632812 17.105469 C 11.039062 17.101562 10.445312 17.089844 9.851562 17.089844 C 9.933594 18.761719 9.894531 20.441406 9.949219 22.117188 C 9.996094 22.816406 9.910156 23.550781 10.179688 24.214844 C 10.550781 24.988281 11.203125 25.617188 11.964844 26 C 12.445312 26.21875 12.992188 26.136719 13.5 26.1875 C 15.820312 26.277344 18.144531 26.222656 20.464844 26.238281 C 23.625 26.226562 26.789062 26.253906 29.949219 26.199219 C 30.191406 26.167969 30.480469 26.226562 30.691406 26.078125 C 30.847656 25.753906 30.808594 25.367188 30.875 25.015625 C 30.972656 24.335938 30.980469 23.601562 31.328125 22.988281 C 31.574219 22.6875 31.859375 22.351562 32.25 22.261719 C 33.179688 22.210938 34.121094 22.347656 35.035156 22.367188 C 35.023438 19.226562 34.996094 16.085938 34.9375 12.949219 C 34.894531 12.316406 34.953125 11.65625 34.742188 11.050781 C 34.347656 10.210938 33.625 9.554688 32.796875 9.152344 C 32.53125 8.953125 32.183594 9.078125 31.878906 9.042969 C 25.359375 9.042969 18.84375 9.042969 12.328125 9.042969 Z M 25.460938 22.289062 C 25.839844 22.300781 26.007812 22.78125 25.863281 23.09375 C 25.644531 23.558594 25.140625 23.792969 24.710938 24.035156 C 23.699219 24.539062 22.519531 24.691406 21.402344 24.515625 C 20.679688 24.390625 19.933594 24.167969 19.40625 23.621094 C 19.222656 23.402344 19.003906 23.160156 18.957031 22.867188 C 19 22.5 19.441406 22.25 19.777344 22.421875 C 20.511719 22.699219 21.214844 23.144531 22.027344 23.140625 C 22.632812 23.15625 23.261719 23.179688 23.835938 22.953125 C 24.3125 22.800781 24.71875 22.5 25.179688 22.320312 C 25.269531 22.296875 25.367188 22.289062 25.460938 22.289062 Z M 25.460938 22.289062 "/>
<path style=" stroke:none;fill-rule:nonzero;fill:rgb(4.313726%,23.921569%,32.156864%);fill-opacity:1;" d="M 39.617188 33.722656 C 39.417969 33.742188 39.191406 33.703125 39.003906 33.785156 C 38.800781 34.332031 38.792969 34.9375 38.699219 35.511719 C 38.609375 36.417969 38.421875 37.316406 38.402344 38.230469 C 38.390625 38.449219 38.433594 38.757812 38.703125 38.796875 C 39.34375 38.960938 40.011719 38.898438 40.664062 38.90625 C 40.851562 38.90625 40.792969 38.644531 40.839844 38.53125 C 41.046875 37.144531 41.253906 35.757812 41.347656 34.363281 C 41.367188 34.195312 41.347656 33.984375 41.152344 33.9375 C 40.667969 33.753906 40.132812 33.726562 39.617188 33.722656 Z M 39.617188 33.722656 "/>
</g>
</svg>
